<svg width="113" height="78" viewBox="0 0 113 78" fill="none" xmlns="http://www.w3.org/2000/svg">
<g clip-path="url(#clip0_114_6)">
<rect width="113" height="78" rx="39" fill="#FFFFFF"/>
<path d="M10.528 42.556C10.432 42.58 10.324 42.592 10.204 42.592C10.084 42.592 9.964 42.592 9.844 42.592C9.028 42.592 8.248 42.448 7.504 42.16C6.76 41.872 6.268 41.32 6.028 40.504C5.956 40.288 5.92 40.048 5.92 39.784C5.92 39.136 6.124 38.548 6.532 38.02C6.628 37.924 6.724 37.864 6.82 37.84C6.892 37.792 6.928 37.84 6.928 37.984C7 39.16 7.408 40 8.152 40.504C8.92 41.032 9.82 41.296 10.852 41.296C11.836 41.296 12.844 41.092 13.876 40.684C14.932 40.276 15.868 39.724 16.684 39.028C17.74 38.092 18.712 37.012 19.6 35.788C20.512 34.564 21.376 33.328 22.192 32.08C22.48 31.6 22.78 31.12 23.092 30.64C23.404 30.16 23.716 29.692 24.028 29.236H15.064C15.016 29.236 14.992 29.212 14.992 29.164C14.992 29.044 15.076 28.9 15.244 28.732C15.436 28.54 15.592 28.444 15.712 28.444H24.532C25.588 26.884 26.68 25.36 27.808 23.872C28.936 22.36 30.076 20.98 31.228 19.732C32.644 18.244 34.12 17.056 35.656 16.168C37.216 15.256 38.62 14.764 39.868 14.692C40.54 14.644 41.14 14.68 41.668 14.8C42.22 14.896 42.664 15.088 43 15.376C43.312 15.616 43.54 15.916 43.684 16.276C43.828 16.636 43.9 17.008 43.9 17.392C43.9 17.488 43.888 17.584 43.864 17.68C43.864 17.776 43.852 17.884 43.828 18.004C43.756 18.388 43.612 18.7 43.396 18.94C43.3 19.036 43.204 19.084 43.108 19.084C42.94 19.084 42.928 18.976 43.072 18.76C43.288 18.472 43.396 18.124 43.396 17.716C43.396 17.5 43.36 17.308 43.288 17.14C43.12 16.684 42.796 16.348 42.316 16.132C41.86 15.892 41.32 15.772 40.696 15.772C39.352 15.772 37.936 16.252 36.448 17.212C35.368 17.908 34.264 18.844 33.136 20.02C32.032 21.172 30.916 22.468 29.788 23.908C28.684 25.348 27.58 26.86 26.476 28.444H31.768C31.984 28.012 32.2 27.58 32.416 27.148C32.656 26.716 32.896 26.284 33.136 25.852C34.024 24.244 34.936 22.708 35.872 21.244C36.832 19.756 37.684 18.412 38.428 17.212C38.5 17.092 38.572 17.032 38.644 17.032C38.74 17.032 38.8 17.08 38.824 17.176C38.848 17.272 38.824 17.356 38.752 17.428C37.648 19.108 36.676 20.884 35.836 22.756C35.02 24.628 34.276 26.524 33.604 28.444H35.368C35.416 28.444 35.44 28.468 35.44 28.516C35.44 28.612 35.344 28.756 35.152 28.948C34.984 29.14 34.828 29.236 34.684 29.236H33.316C33.1 29.86 32.836 30.7 32.524 31.756C32.236 32.788 31.972 33.868 31.732 34.996C31.516 36.124 31.408 37.156 31.408 38.092C31.408 38.956 31.54 39.628 31.804 40.108C32.092 40.588 32.536 40.828 33.136 40.828C33.208 40.828 33.28 40.828 33.352 40.828C33.424 40.828 33.496 40.816 33.568 40.792C33.976 40.72 34.384 40.492 34.792 40.108C35.224 39.724 35.644 39.268 36.052 38.74C36.628 37.996 37.156 37.204 37.636 36.364C38.116 35.524 38.476 34.876 38.716 34.42C38.836 34.228 38.932 34.132 39.004 34.132C39.1 34.132 39.148 34.216 39.148 34.384C39.148 34.48 39.112 34.6 39.04 34.744C38.704 35.344 38.272 36.1 37.744 37.012C37.24 37.9 36.676 38.728 36.052 39.496C35.596 40.024 35.116 40.48 34.612 40.864C34.108 41.248 33.58 41.488 33.028 41.584C32.884 41.608 32.74 41.62 32.596 41.62C32.476 41.644 32.344 41.656 32.2 41.656C31.504 41.656 30.892 41.452 30.364 41.044C29.836 40.66 29.476 40 29.284 39.064C29.236 38.8 29.2 38.524 29.176 38.236C29.152 37.948 29.14 37.672 29.14 37.408C29.14 36.016 29.38 34.612 29.86 33.196C30.364 31.78 30.88 30.46 31.408 29.236H25.864C25.48 29.764 25.108 30.316 24.748 30.892C24.388 31.444 24.016 31.996 23.632 32.548C22.936 33.556 22.096 34.624 21.112 35.752C20.152 36.856 19.096 37.912 17.944 38.92C16.792 39.904 15.58 40.732 14.308 41.404C13.06 42.076 11.8 42.46 10.528 42.556ZM39.9991 40.252C39.4711 40.252 38.9791 40.084 38.5231 39.748C38.0671 39.388 37.8391 38.812 37.8391 38.02C37.8391 37.18 38.0431 36.256 38.4511 35.248C38.8591 34.24 39.2431 33.34 39.6031 32.548C39.7951 32.164 40.0471 31.648 40.3591 31C40.6951 30.328 41.0551 29.668 41.4391 29.02H39.7471C39.6751 29.02 39.6391 28.96 39.6391 28.84C39.6391 28.744 39.6751 28.648 39.7471 28.552C39.8191 28.432 39.9031 28.372 39.9991 28.372C40.6711 28.372 41.1751 28.312 41.5111 28.192C41.8471 28.072 42.1351 27.904 42.3751 27.688C42.7591 27.352 43.1311 26.92 43.4911 26.392C43.8751 25.864 44.2471 25.408 44.6071 25.024C44.8711 24.688 45.1951 24.436 45.5791 24.268C45.9871 24.1 46.2511 24.04 46.3711 24.088C46.2511 24.256 46.0591 24.544 45.7951 24.952C45.5311 25.36 45.2551 25.804 44.9671 26.284C44.6791 26.764 44.4151 27.208 44.1751 27.616C43.9351 28.024 43.7791 28.3 43.7071 28.444H48.1711C48.7951 27.076 49.5031 25.636 50.2951 24.124C51.1111 22.612 52.0111 21.172 52.9951 19.804C53.9791 18.412 55.0471 17.2 56.1991 16.168C57.3511 15.136 58.5751 14.416 59.8711 14.008C60.0151 13.984 60.1591 13.96 60.3031 13.936C60.4471 13.912 60.5911 13.9 60.7351 13.9C61.0951 13.9 61.4071 13.984 61.6711 14.152C62.0071 14.368 62.1751 14.752 62.1751 15.304C62.1751 15.688 62.0671 16.156 61.8511 16.708C61.4671 17.668 60.8311 18.7 59.9431 19.804C59.0791 20.908 58.0591 22.036 56.8831 23.188C55.4191 24.604 54.0151 25.852 52.6711 26.932C51.3271 28.012 50.2471 28.864 49.4311 29.488C48.9511 30.52 48.5551 31.42 48.2431 32.188C47.9311 32.932 47.7271 33.472 47.6311 33.808C48.0151 33.232 48.4471 32.608 48.9271 31.936C49.4311 31.24 49.8751 30.7 50.2591 30.316C50.8111 29.764 51.3631 29.296 51.9151 28.912C52.4671 28.528 53.0071 28.312 53.5351 28.264C54.3511 28.192 54.9391 28.3 55.2991 28.588C55.6591 28.852 55.8391 29.248 55.8391 29.776C55.8391 30.304 55.6951 30.892 55.4071 31.54C55.0951 32.284 54.7231 33.028 54.2911 33.772C53.8591 34.516 53.4631 35.236 53.1031 35.932C53.0071 36.124 52.8271 36.496 52.5631 37.048C52.3231 37.576 52.1671 38.08 52.0951 38.56C52.0951 38.584 52.0831 38.62 52.0591 38.668C52.0591 38.716 52.0591 38.764 52.0591 38.812C52.0591 39.076 52.1311 39.28 52.2751 39.424C52.4191 39.544 52.5871 39.604 52.7791 39.604C53.1871 39.604 53.5711 39.472 53.9311 39.208C54.2911 38.944 54.6031 38.656 54.8671 38.344C55.4191 37.744 55.9231 37.084 56.3791 36.364C56.8351 35.644 57.2911 34.876 57.7471 34.06C57.8191 33.964 57.8911 33.916 57.9631 33.916C58.0591 33.916 58.1071 33.988 58.1071 34.132C58.1071 34.252 58.0831 34.348 58.0351 34.42C57.6031 35.212 57.1351 36.004 56.6311 36.796C56.1511 37.588 55.5631 38.332 54.8671 39.028C54.5551 39.34 54.1951 39.628 53.7871 39.892C53.3791 40.132 52.9231 40.252 52.4191 40.252C51.6031 40.252 51.0271 40.024 50.6911 39.568C50.3791 39.088 50.2231 38.56 50.2231 37.984C50.2231 37.528 50.3071 37.072 50.4751 36.616C50.8831 35.56 51.4471 34.552 52.1671 33.592C52.8871 32.632 53.4871 31.636 53.9671 30.604C54.1351 30.292 54.2191 30.004 54.2191 29.74C54.2191 29.452 54.1351 29.236 53.9671 29.092C53.7991 28.948 53.6191 28.876 53.4271 28.876C52.9711 28.876 52.4671 29.08 51.9151 29.488C51.3871 29.872 50.8711 30.364 50.3671 30.964C49.9111 31.492 49.4431 32.104 48.9631 32.8C48.4831 33.472 48.0271 34.192 47.5951 34.96C47.1871 35.656 46.7671 36.388 46.3351 37.156C45.9031 37.9 45.5551 38.536 45.2911 39.064C45.0991 39.472 44.8951 39.736 44.6791 39.856C44.4631 39.976 44.2591 40.036 44.0671 40.036C43.9711 40.036 43.8751 40.024 43.7791 40C43.6831 40 43.5991 40 43.5271 40C43.7431 39.184 44.1391 38.068 44.7151 36.652C45.3151 35.212 46.0231 33.508 46.8391 31.54C47.0071 31.156 47.1751 30.76 47.3431 30.352C47.5111 29.92 47.7031 29.476 47.9191 29.02H43.3831C42.9511 29.764 42.4351 30.736 41.8351 31.936C41.2591 33.112 40.7431 34.252 40.2871 35.356C40.2391 35.5 40.1431 35.764 39.9991 36.148C39.8551 36.508 39.7231 36.916 39.6031 37.372C39.5071 37.804 39.4591 38.212 39.4591 38.596C39.4591 38.908 39.5191 39.172 39.6391 39.388C39.7591 39.604 39.9751 39.712 40.2871 39.712C40.6471 39.712 41.0071 39.592 41.3671 39.352C41.7271 39.088 42.0031 38.8 42.1951 38.488C42.2671 38.392 42.3151 38.344 42.3391 38.344C42.4111 38.344 42.4471 38.416 42.4471 38.56C42.4471 38.776 42.3631 38.968 42.1951 39.136C41.9311 39.424 41.6071 39.688 41.2231 39.928C40.8631 40.144 40.4551 40.252 39.9991 40.252ZM49.7551 28.768C51.1951 27.712 52.4911 26.644 53.6431 25.564C54.7951 24.484 55.9591 23.32 57.1351 22.072C57.4711 21.712 57.9031 21.232 58.4311 20.632C58.9831 20.032 59.5231 19.384 60.0511 18.688C60.5791 17.992 60.9751 17.32 61.2391 16.672C61.4791 16.12 61.5991 15.652 61.5991 15.268C61.5991 14.62 61.2991 14.296 60.6991 14.296C60.3871 14.296 60.0391 14.392 59.6551 14.584C59.2711 14.776 58.9111 15.04 58.5751 15.376C57.4231 16.456 56.2951 17.776 55.1911 19.336C54.1111 20.872 53.1031 22.468 52.1671 24.124C51.2551 25.78 50.4511 27.328 49.7551 28.768ZM61.0028 40.288C59.6108 40.288 58.6268 39.928 58.0508 39.208C57.7628 38.896 57.5588 38.524 57.4388 38.092C57.3188 37.66 57.2588 37.216 57.2588 36.76C57.2588 36.184 57.3308 35.608 57.4748 35.032C57.6188 34.432 57.7988 33.88 58.0148 33.376C58.3508 32.584 58.7948 31.792 59.3468 31C59.8988 30.184 60.5588 29.5 61.3268 28.948C62.1188 28.396 62.9828 28.12 63.9188 28.12C64.5428 28.12 65.0348 28.276 65.3948 28.588C65.7548 28.9 65.9348 29.38 65.9348 30.028C65.9348 30.772 65.7068 31.528 65.2508 32.296C64.7948 33.04 64.2188 33.664 63.5228 34.168C62.8268 34.672 62.1068 34.924 61.3628 34.924C60.6908 34.924 60.1028 34.684 59.5988 34.204C59.4548 34.588 59.3348 35.02 59.2388 35.5C59.1428 35.956 59.0948 36.424 59.0948 36.904C59.0948 37.648 59.2388 38.296 59.5268 38.848C59.8388 39.4 60.3908 39.676 61.1828 39.676C61.7588 39.676 62.3108 39.532 62.8388 39.244C63.3908 38.932 63.8828 38.56 64.3148 38.128C64.7948 37.624 65.2508 37.084 65.6828 36.508C66.1148 35.932 66.5348 35.26 66.9428 34.492C66.9908 34.42 67.0268 34.384 67.0508 34.384C67.1468 34.384 67.1948 34.492 67.1948 34.708C67.1948 34.852 67.1468 35.008 67.0508 35.176C66.6908 35.824 66.2708 36.484 65.7908 37.156C65.3108 37.804 64.8188 38.368 64.3148 38.848C63.8588 39.28 63.3668 39.628 62.8388 39.892C62.3108 40.156 61.6988 40.288 61.0028 40.288ZM59.7788 33.664C59.9468 33.904 60.1388 34.084 60.3548 34.204C60.5948 34.3 60.8348 34.348 61.0748 34.348C61.6508 34.348 62.2508 34.132 62.8748 33.7C63.4988 33.244 64.0028 32.716 64.3868 32.116C64.5548 31.852 64.6988 31.504 64.8188 31.072C64.9628 30.64 65.0348 30.232 65.0348 29.848C65.0348 29.512 64.9628 29.224 64.8188 28.984C64.6988 28.72 64.4468 28.588 64.0628 28.588C63.6308 28.588 63.1148 28.852 62.5148 29.38C61.9388 29.908 61.3868 30.592 60.8588 31.432C60.6908 31.72 60.4988 32.056 60.2828 32.44C60.0908 32.824 59.9228 33.232 59.7788 33.664ZM73.5927 40.216C72.8967 40.216 72.3447 40 71.9367 39.568C71.5527 39.136 71.3607 38.596 71.3607 37.948C71.3607 37.636 71.4207 37.276 71.5407 36.868C71.8767 35.812 72.4047 34.768 73.1247 33.736C73.8687 32.68 74.4807 31.636 74.9607 30.604C75.1287 30.268 75.2127 29.968 75.2127 29.704C75.2127 29.44 75.1287 29.248 74.9607 29.128C74.8167 28.984 74.6367 28.912 74.4207 28.912C74.1087 28.912 73.7127 29.044 73.2327 29.308C72.7767 29.548 72.2487 30.016 71.6487 30.712C71.2887 31.144 70.8807 31.672 70.4247 32.296C69.9687 32.92 69.5967 33.484 69.3087 33.988C68.8287 34.804 68.3967 35.632 68.0127 36.472C67.6287 37.288 67.2927 38.044 67.0047 38.74C66.7647 39.292 66.4767 39.652 66.1407 39.82C65.8047 39.964 65.4807 40.024 65.1687 40C64.8567 39.976 64.6167 39.976 64.4487 40C65.1207 38.68 65.7807 37.288 66.4287 35.824C67.0767 34.36 67.6287 32.896 68.0847 31.432C68.3007 30.76 68.4807 30.112 68.6247 29.488C68.7687 28.84 68.8287 28.42 68.8047 28.228V28.156C68.8047 27.964 68.9007 27.916 69.0927 28.012C69.4047 28.18 69.6207 28.432 69.7407 28.768C69.8607 29.08 69.9207 29.44 69.9207 29.848C69.9207 30.304 69.8607 30.796 69.7407 31.324C69.6207 31.828 69.4767 32.284 69.3087 32.692C69.6207 32.26 69.9567 31.828 70.3167 31.396C70.6767 30.94 71.0727 30.508 71.5047 30.1C72.0087 29.596 72.5487 29.164 73.1247 28.804C73.7007 28.42 74.3247 28.228 74.9967 28.228C75.6447 28.228 76.1127 28.372 76.4007 28.66C76.7127 28.948 76.8687 29.332 76.8687 29.812C76.8687 30.316 76.7247 30.892 76.4367 31.54C76.1247 32.284 75.7407 33.028 75.2847 33.772C74.8527 34.516 74.4567 35.236 74.0967 35.932C74.0247 36.076 73.9047 36.304 73.7367 36.616C73.5927 36.904 73.4607 37.228 73.3407 37.588C73.2927 37.756 73.2447 37.936 73.1967 38.128C73.1487 38.296 73.1247 38.476 73.1247 38.668C73.1247 38.908 73.1727 39.136 73.2687 39.352C73.3887 39.544 73.6047 39.64 73.9167 39.64C74.3247 39.64 74.7087 39.508 75.0687 39.244C75.4527 38.956 75.7767 38.656 76.0407 38.344C76.5927 37.744 77.0967 37.084 77.5527 36.364C78.0327 35.62 78.5007 34.84 78.9567 34.024C79.0287 33.928 79.0767 33.88 79.1007 33.88C79.1967 33.88 79.2447 33.988 79.2447 34.204C79.2447 34.348 79.2207 34.456 79.1727 34.528C78.7407 35.32 78.2847 36.1 77.8047 36.868C77.3247 37.612 76.7367 38.332 76.0407 39.028C75.7287 39.34 75.3687 39.616 74.9607 39.856C74.5527 40.096 74.0967 40.216 73.5927 40.216ZM86.3789 40.252C85.6109 40.252 85.0829 40.012 84.7949 39.532C84.5069 39.028 84.3629 38.476 84.3629 37.876C84.3629 37.756 84.3749 37.552 84.3989 37.264C84.4469 36.952 84.4949 36.664 84.5429 36.4C84.2069 36.856 83.7989 37.36 83.3189 37.912C82.8629 38.464 82.3949 38.932 81.9149 39.316C81.1469 39.94 80.4509 40.252 79.8269 40.252C79.2269 40.252 78.7589 40 78.4229 39.496C78.1109 38.992 77.9549 38.356 77.9549 37.588C77.9549 36.604 78.1709 35.608 78.6029 34.6C79.0349 33.592 79.5989 32.644 80.2949 31.756C81.0149 30.844 81.8069 30.064 82.6709 29.416C83.1749 29.056 83.7869 28.768 84.5069 28.552C85.2509 28.312 85.9949 28.192 86.7389 28.192C87.5789 28.192 88.3109 28.324 88.9349 28.588C89.5829 28.828 90.0269 29.176 90.2669 29.632C89.7629 30.28 89.2469 31.084 88.7189 32.044C88.1909 32.98 87.7349 33.832 87.3509 34.6C87.0869 35.128 86.7989 35.788 86.4869 36.58C86.1749 37.348 86.0189 38.008 86.0189 38.56C86.0189 38.8 86.0789 39.04 86.1989 39.28C86.3189 39.52 86.5469 39.64 86.8829 39.64C87.2669 39.64 87.6389 39.496 87.9989 39.208C88.3589 38.92 88.6589 38.632 88.8989 38.344C89.4509 37.744 89.9549 37.084 90.4109 36.364C90.8669 35.644 91.3229 34.876 91.7789 34.06C91.8509 33.964 91.9229 33.916 91.9949 33.916C92.0909 33.916 92.1389 33.988 92.1389 34.132C92.1389 34.252 92.1149 34.348 92.0669 34.42C91.6589 35.212 91.2029 36.004 90.6989 36.796C90.1949 37.588 89.5949 38.332 88.8989 39.028C88.5629 39.364 88.1669 39.652 87.7109 39.892C87.2549 40.132 86.8109 40.252 86.3789 40.252ZM80.6189 39.136C81.0749 39.136 81.5669 38.896 82.0949 38.416C82.6469 37.912 83.1749 37.312 83.6789 36.616C84.2069 35.896 84.6749 35.212 85.0829 34.564C85.5149 33.892 85.8509 33.376 86.0909 33.016C86.5949 32.224 87.0629 31.564 87.4949 31.036C87.9269 30.508 88.5989 30.1 89.5109 29.812C89.5589 29.812 89.5949 29.812 89.6189 29.812C89.6669 29.788 89.7149 29.776 89.7629 29.776C89.5469 29.44 89.1869 29.188 88.6829 29.02C88.1789 28.852 87.6869 28.768 87.2069 28.768C86.4629 28.768 85.7429 28.972 85.0469 29.38C84.3509 29.788 83.7149 30.304 83.1389 30.928C82.5869 31.576 82.0469 32.284 81.5189 33.052C80.9909 33.82 80.5589 34.6 80.2229 35.392C79.9109 36.184 79.7549 36.94 79.7549 37.66C79.7549 38.044 79.8149 38.392 79.9349 38.704C80.0789 38.992 80.3069 39.136 80.6189 39.136Z" fill="black"/>
<g clip-path="url(#clip1_114_6)">
<path d="M98.287 39V33.4H98.775L101.335 37.768H101.079L103.615 33.4H104.103V39H103.535V34.288H103.671L101.335 38.288H101.055L98.703 34.288H98.855V39H98.287ZM105.928 39V33.4H108.208C108.805 33.4 109.328 33.52 109.776 33.76C110.229 33.9947 110.581 34.3227 110.832 34.744C111.082 35.1653 111.208 35.6507 111.208 36.2C111.208 36.7493 111.082 37.2347 110.832 37.656C110.581 38.0773 110.229 38.408 109.776 38.648C109.328 38.8827 108.805 39 108.208 39H105.928ZM106.52 38.488H108.176C108.672 38.488 109.101 38.392 109.464 38.2C109.832 38.0027 110.117 37.7333 110.32 37.392C110.522 37.0453 110.624 36.648 110.624 36.2C110.624 35.7467 110.522 35.3493 110.32 35.008C110.117 34.6667 109.832 34.4 109.464 34.208C109.101 34.0107 108.672 33.912 108.176 33.912H106.52V38.488Z" fill="black"/>
</g>
<path d="M18.0113 53L16.4273 48.8H16.9713L18.4113 52.696H18.1633L19.6433 48.8H20.1313L21.5953 52.696H21.3473L22.8113 48.8H23.3313L21.7393 53H21.2033L19.7953 49.336H19.9633L18.5473 53H18.0113ZM24.1865 53V48.8H24.7545V53H24.1865ZM24.4745 47.872C24.3572 47.872 24.2585 47.832 24.1785 47.752C24.0985 47.672 24.0585 47.576 24.0585 47.464C24.0585 47.352 24.0985 47.2587 24.1785 47.184C24.2585 47.104 24.3572 47.064 24.4745 47.064C24.5919 47.064 24.6905 47.1013 24.7705 47.176C24.8505 47.2507 24.8905 47.344 24.8905 47.456C24.8905 47.5733 24.8505 47.672 24.7705 47.752C24.6959 47.832 24.5972 47.872 24.4745 47.872ZM27.463 53.04C27.1163 53.04 26.7883 52.992 26.479 52.896C26.1696 52.7947 25.927 52.6693 25.751 52.52L26.007 52.072C26.1776 52.2 26.3963 52.312 26.663 52.408C26.9296 52.4987 27.2096 52.544 27.503 52.544C27.903 52.544 28.191 52.4827 28.367 52.36C28.543 52.232 28.631 52.064 28.631 51.856C28.631 51.7013 28.5803 51.5813 28.479 51.496C28.383 51.4053 28.255 51.3387 28.095 51.296C27.935 51.248 27.7563 51.208 27.559 51.176C27.3616 51.144 27.1643 51.1067 26.967 51.064C26.775 51.0213 26.599 50.96 26.439 50.88C26.279 50.7947 26.1483 50.68 26.047 50.536C25.951 50.392 25.903 50.2 25.903 49.96C25.903 49.7307 25.967 49.5253 26.095 49.344C26.223 49.1627 26.4096 49.0213 26.655 48.92C26.9056 48.8133 27.2096 48.76 27.567 48.76C27.839 48.76 28.111 48.7973 28.383 48.872C28.655 48.9413 28.879 49.0347 29.055 49.152L28.807 49.608C28.6203 49.48 28.4203 49.3893 28.207 49.336C27.9936 49.2773 27.7803 49.248 27.567 49.248C27.1883 49.248 26.9083 49.3147 26.727 49.448C26.551 49.576 26.463 49.7413 26.463 49.944C26.463 50.104 26.511 50.2293 26.607 50.32C26.7083 50.4107 26.839 50.4827 26.999 50.536C27.1643 50.584 27.343 50.624 27.535 50.656C27.7323 50.688 27.927 50.728 28.119 50.776C28.3163 50.8187 28.495 50.88 28.655 50.96C28.8203 51.0347 28.951 51.144 29.047 51.288C29.1483 51.4267 29.199 51.6107 29.199 51.84C29.199 52.0853 29.1296 52.2987 28.991 52.48C28.8576 52.656 28.6603 52.7947 28.399 52.896C28.143 52.992 27.831 53.04 27.463 53.04ZM31.9132 53.04C31.5132 53.04 31.1532 52.9493 30.8332 52.768C30.5186 52.5867 30.2706 52.336 30.0892 52.016C29.9079 51.6907 29.8172 51.3173 29.8172 50.896C29.8172 50.4693 29.9079 50.096 30.0892 49.776C30.2706 49.456 30.5186 49.208 30.8332 49.032C31.1532 48.8507 31.5132 48.76 31.9132 48.76C32.2812 48.76 32.6092 48.8427 32.8972 49.008C33.1906 49.1733 33.4226 49.416 33.5932 49.736C33.7692 50.0507 33.8572 50.4373 33.8572 50.896C33.8572 51.3493 33.7719 51.736 33.6012 52.056C33.4306 52.376 33.1986 52.6213 32.9052 52.792C32.6172 52.9573 32.2866 53.04 31.9132 53.04ZM31.9532 52.536C32.2519 52.536 32.5186 52.4693 32.7532 52.336C32.9932 52.1973 33.1799 52.0053 33.3132 51.76C33.4519 51.5093 33.5212 51.2213 33.5212 50.896C33.5212 50.5653 33.4519 50.2773 33.3132 50.032C33.1799 49.7867 32.9932 49.5973 32.7532 49.464C32.5186 49.3253 32.2519 49.256 31.9532 49.256C31.6599 49.256 31.3959 49.3253 31.1612 49.464C30.9266 49.5973 30.7399 49.7867 30.6012 50.032C30.4626 50.2773 30.3932 50.5653 30.3932 50.896C30.3932 51.2213 30.4626 51.5093 30.6012 51.76C30.7399 52.0053 30.9266 52.1973 31.1612 52.336C31.3959 52.4693 31.6599 52.536 31.9532 52.536ZM33.5372 53V51.736L33.5932 50.888L33.5132 50.04V47.064H34.0812V53H33.5372ZM37.3751 53.04C36.9698 53.04 36.6044 52.9493 36.2791 52.768C35.9591 52.5813 35.7058 52.328 35.5191 52.008C35.3324 51.6827 35.2391 51.312 35.2391 50.896C35.2391 50.4747 35.3324 50.104 35.5191 49.784C35.7058 49.464 35.9591 49.2133 36.2791 49.032C36.5991 48.8507 36.9644 48.76 37.3751 48.76C37.7911 48.76 38.1591 48.8507 38.4791 49.032C38.8044 49.2133 39.0578 49.464 39.2391 49.784C39.4258 50.104 39.5191 50.4747 39.5191 50.896C39.5191 51.312 39.4258 51.6827 39.2391 52.008C39.0578 52.328 38.8044 52.5813 38.4791 52.768C38.1538 52.9493 37.7858 53.04 37.3751 53.04ZM37.3751 52.536C37.6791 52.536 37.9484 52.4693 38.1831 52.336C38.4178 52.1973 38.6018 52.0053 38.7351 51.76C38.8738 51.5093 38.9431 51.2213 38.9431 50.896C38.9431 50.5653 38.8738 50.2773 38.7351 50.032C38.6018 49.7867 38.4178 49.5973 38.1831 49.464C37.9484 49.3253 37.6818 49.256 37.3831 49.256C37.0844 49.256 36.8178 49.3253 36.5831 49.464C36.3484 49.5973 36.1618 49.7867 36.0231 50.032C35.8844 50.2773 35.8151 50.5653 35.8151 50.896C35.8151 51.2213 35.8844 51.5093 36.0231 51.76C36.1618 52.0053 36.3484 52.1973 36.5831 52.336C36.8178 52.4693 37.0818 52.536 37.3751 52.536ZM45.9267 48.76C46.2681 48.76 46.5641 48.8267 46.8147 48.96C47.0707 49.088 47.2681 49.2853 47.4067 49.552C47.5507 49.8187 47.6227 50.1547 47.6227 50.56V53H47.0547V50.616C47.0547 50.1733 46.9481 49.84 46.7347 49.616C46.5267 49.3867 46.2307 49.272 45.8467 49.272C45.5587 49.272 45.3081 49.3333 45.0947 49.456C44.8867 49.5733 44.7241 49.7467 44.6067 49.976C44.4947 50.2 44.4387 50.472 44.4387 50.792V53H43.8707V50.616C43.8707 50.1733 43.7641 49.84 43.5507 49.616C43.3374 49.3867 43.0387 49.272 42.6547 49.272C42.3721 49.272 42.1241 49.3333 41.9107 49.456C41.6974 49.5733 41.5321 49.7467 41.4147 49.976C41.3027 50.2 41.2467 50.472 41.2467 50.792V53H40.6787V48.8H41.2227V49.936L41.1347 49.736C41.2627 49.432 41.4681 49.1947 41.7507 49.024C42.0387 48.848 42.3774 48.76 42.7667 48.76C43.1774 48.76 43.5267 48.864 43.8147 49.072C44.1027 49.2747 44.2894 49.5813 44.3747 49.992L44.1507 49.904C44.2734 49.5627 44.4894 49.288 44.7987 49.08C45.1134 48.8667 45.4894 48.76 45.9267 48.76ZM51.3528 53V48.272C51.3528 47.8987 51.4622 47.5973 51.6808 47.368C51.8995 47.1387 52.2142 47.024 52.6248 47.024C52.7848 47.024 52.9395 47.0453 53.0888 47.088C53.2382 47.1307 53.3635 47.1973 53.4648 47.288L53.2728 47.712C53.1928 47.6427 53.0995 47.592 52.9928 47.56C52.8862 47.5227 52.7715 47.504 52.6488 47.504C52.4088 47.504 52.2248 47.5707 52.0968 47.704C51.9688 47.8373 51.9048 48.0347 51.9048 48.296V48.936L51.9208 49.2V53H51.3528ZM50.6008 49.272V48.8H53.2008V49.272H50.6008ZM55.6095 53.04C55.2041 53.04 54.8388 52.9493 54.5135 52.768C54.1935 52.5813 53.9401 52.328 53.7535 52.008C53.5668 51.6827 53.4735 51.312 53.4735 50.896C53.4735 50.4747 53.5668 50.104 53.7535 49.784C53.9401 49.464 54.1935 49.2133 54.5135 49.032C54.8335 48.8507 55.1988 48.76 55.6095 48.76C56.0255 48.76 56.3935 48.8507 56.7135 49.032C57.0388 49.2133 57.2921 49.464 57.4735 49.784C57.6601 50.104 57.7535 50.4747 57.7535 50.896C57.7535 51.312 57.6601 51.6827 57.4735 52.008C57.2921 52.328 57.0388 52.5813 56.7135 52.768C56.3881 52.9493 56.0201 53.04 55.6095 53.04ZM55.6095 52.536C55.9135 52.536 56.1828 52.4693 56.4175 52.336C56.6521 52.1973 56.8361 52.0053 56.9695 51.76C57.1081 51.5093 57.1775 51.2213 57.1775 50.896C57.1775 50.5653 57.1081 50.2773 56.9695 50.032C56.8361 49.7867 56.6521 49.5973 56.4175 49.464C56.1828 49.3253 55.9161 49.256 55.6175 49.256C55.3188 49.256 55.0521 49.3253 54.8175 49.464C54.5828 49.5973 54.3961 49.7867 54.2575 50.032C54.1188 50.2773 54.0495 50.5653 54.0495 50.896C54.0495 51.2213 54.1188 51.5093 54.2575 51.76C54.3961 52.0053 54.5828 52.1973 54.8175 52.336C55.0521 52.4693 55.3161 52.536 55.6095 52.536ZM58.9131 53V48.8H59.4571V49.944L59.4011 49.744C59.5184 49.424 59.7158 49.1813 59.9931 49.016C60.2704 48.8453 60.6144 48.76 61.0251 48.76V49.312C61.0038 49.312 60.9824 49.312 60.9611 49.312C60.9398 49.3067 60.9184 49.304 60.8971 49.304C60.4544 49.304 60.1078 49.44 59.8571 49.712C59.6064 49.9787 59.4811 50.36 59.4811 50.856V53H58.9131ZM65.8898 53.04C65.4898 53.04 65.1298 52.9493 64.8098 52.768C64.4951 52.5867 64.2471 52.336 64.0658 52.016C63.8844 51.6907 63.7938 51.3173 63.7938 50.896C63.7938 50.4693 63.8844 50.096 64.0658 49.776C64.2471 49.456 64.4951 49.208 64.8098 49.032C65.1298 48.8507 65.4898 48.76 65.8898 48.76C66.2578 48.76 66.5858 48.8427 66.8738 49.008C67.1671 49.1733 67.3991 49.416 67.5698 49.736C67.7458 50.0507 67.8338 50.4373 67.8338 50.896C67.8338 51.3493 67.7484 51.736 67.5778 52.056C67.4071 52.376 67.1751 52.6213 66.8818 52.792C66.5938 52.9573 66.2631 53.04 65.8898 53.04ZM65.9298 52.536C66.2284 52.536 66.4951 52.4693 66.7298 52.336C66.9698 52.1973 67.1564 52.0053 67.2898 51.76C67.4284 51.5093 67.4978 51.2213 67.4978 50.896C67.4978 50.5653 67.4284 50.2773 67.2898 50.032C67.1564 49.7867 66.9698 49.5973 66.7298 49.464C66.4951 49.3253 66.2284 49.256 65.9298 49.256C65.6364 49.256 65.3724 49.3253 65.1378 49.464C64.9031 49.5973 64.7164 49.7867 64.5778 50.032C64.4391 50.2773 64.3698 50.5653 64.3698 50.896C64.3698 51.2213 64.4391 51.5093 64.5778 51.76C64.7164 52.0053 64.9031 52.1973 65.1378 52.336C65.3724 52.4693 65.6364 52.536 65.9298 52.536ZM67.5138 53V51.736L67.5698 50.888L67.4898 50.04V47.064H68.0578V53H67.5138ZM71.3517 53.04C70.9463 53.04 70.581 52.9493 70.2557 52.768C69.9357 52.5813 69.6823 52.328 69.4957 52.008C69.309 51.6827 69.2157 51.312 69.2157 50.896C69.2157 50.4747 69.309 50.104 69.4957 49.784C69.6823 49.464 69.9357 49.2133 70.2557 49.032C70.5757 48.8507 70.941 48.76 71.3517 48.76C71.7677 48.76 72.1357 48.8507 72.4557 49.032C72.781 49.2133 73.0343 49.464 73.2157 49.784C73.4023 50.104 73.4957 50.4747 73.4957 50.896C73.4957 51.312 73.4023 51.6827 73.2157 52.008C73.0343 52.328 72.781 52.5813 72.4557 52.768C72.1303 52.9493 71.7623 53.04 71.3517 53.04ZM71.3517 52.536C71.6557 52.536 71.925 52.4693 72.1597 52.336C72.3943 52.1973 72.5783 52.0053 72.7117 51.76C72.8503 51.5093 72.9197 51.2213 72.9197 50.896C72.9197 50.5653 72.8503 50.2773 72.7117 50.032C72.5783 49.7867 72.3943 49.5973 72.1597 49.464C71.925 49.3253 71.6583 49.256 71.3597 49.256C71.061 49.256 70.7943 49.3253 70.5597 49.464C70.325 49.5973 70.1383 49.7867 69.9997 50.032C69.861 50.2773 69.7917 50.5653 69.7917 50.896C69.7917 51.2213 69.861 51.5093 69.9997 51.76C70.1383 52.0053 70.325 52.1973 70.5597 52.336C70.7943 52.4693 71.0583 52.536 71.3517 52.536ZM76.3993 53.04C75.9833 53.04 75.6099 52.9493 75.2793 52.768C74.9539 52.5813 74.6979 52.328 74.5113 52.008C74.3246 51.6827 74.2313 51.312 74.2313 50.896C74.2313 50.4747 74.3246 50.104 74.5113 49.784C74.6979 49.464 74.9539 49.2133 75.2793 49.032C75.6099 48.8507 75.9833 48.76 76.3993 48.76C76.7566 48.76 77.0793 48.8293 77.3673 48.968C77.6553 49.1067 77.8819 49.3147 78.0473 49.592L77.6233 49.88C77.4793 49.6667 77.3006 49.5093 77.0873 49.408C76.8739 49.3067 76.6419 49.256 76.3913 49.256C76.0926 49.256 75.8233 49.3253 75.5833 49.464C75.3433 49.5973 75.1539 49.7867 75.0153 50.032C74.8766 50.2773 74.8073 50.5653 74.8073 50.896C74.8073 51.2267 74.8766 51.5147 75.0153 51.76C75.1539 52.0053 75.3433 52.1973 75.5833 52.336C75.8233 52.4693 76.0926 52.536 76.3913 52.536C76.6419 52.536 76.8739 52.4853 77.0873 52.384C77.3006 52.2827 77.4793 52.128 77.6233 51.92L78.0473 52.208C77.8819 52.48 77.6553 52.688 77.3673 52.832C77.0793 52.9707 76.7566 53.04 76.3993 53.04ZM80.538 53.04C80.1433 53.04 79.8393 52.9333 79.626 52.72C79.4126 52.5067 79.306 52.2053 79.306 51.816V47.872H79.874V51.784C79.874 52.0293 79.9353 52.2187 80.058 52.352C80.186 52.4853 80.3673 52.552 80.602 52.552C80.8526 52.552 81.0606 52.48 81.226 52.336L81.426 52.744C81.314 52.8453 81.178 52.92 81.018 52.968C80.8633 53.016 80.7033 53.04 80.538 53.04ZM78.554 49.272V48.8H81.154V49.272H78.554ZM84.0235 53.04C83.6182 53.04 83.2529 52.9493 82.9275 52.768C82.6075 52.5813 82.3542 52.328 82.1675 52.008C81.9809 51.6827 81.8875 51.312 81.8875 50.896C81.8875 50.4747 81.9809 50.104 82.1675 49.784C82.3542 49.464 82.6075 49.2133 82.9275 49.032C83.2475 48.8507 83.6129 48.76 84.0235 48.76C84.4395 48.76 84.8075 48.8507 85.1275 49.032C85.4529 49.2133 85.7062 49.464 85.8875 49.784C86.0742 50.104 86.1675 50.4747 86.1675 50.896C86.1675 51.312 86.0742 51.6827 85.8875 52.008C85.7062 52.328 85.4529 52.5813 85.1275 52.768C84.8022 52.9493 84.4342 53.04 84.0235 53.04ZM84.0235 52.536C84.3275 52.536 84.5969 52.4693 84.8315 52.336C85.0662 52.1973 85.2502 52.0053 85.3835 51.76C85.5222 51.5093 85.5915 51.2213 85.5915 50.896C85.5915 50.5653 85.5222 50.2773 85.3835 50.032C85.2502 49.7867 85.0662 49.5973 84.8315 49.464C84.5969 49.3253 84.3302 49.256 84.0315 49.256C83.7329 49.256 83.4662 49.3253 83.2315 49.464C82.9969 49.5973 82.8102 49.7867 82.6715 50.032C82.5329 50.2773 82.4635 50.5653 82.4635 50.896C82.4635 51.2213 82.5329 51.5093 82.6715 51.76C82.8102 52.0053 82.9969 52.1973 83.2315 52.336C83.4662 52.4693 83.7302 52.536 84.0235 52.536ZM87.3272 53V48.8H87.8712V49.944L87.8152 49.744C87.9325 49.424 88.1298 49.1813 88.4072 49.016C88.6845 48.8453 89.0285 48.76 89.4392 48.76V49.312C89.4178 49.312 89.3965 49.312 89.3752 49.312C89.3538 49.3067 89.3325 49.304 89.3112 49.304C88.8685 49.304 88.5218 49.44 88.2712 49.712C88.0205 49.9787 87.8952 50.36 87.8952 50.856V53H87.3272ZM91.6505 53.04C91.3038 53.04 90.9758 52.992 90.6665 52.896C90.3571 52.7947 90.1145 52.6693 89.9385 52.52L90.1945 52.072C90.3651 52.2 90.5838 52.312 90.8505 52.408C91.1171 52.4987 91.3971 52.544 91.6905 52.544C92.0905 52.544 92.3785 52.4827 92.5545 52.36C92.7305 52.232 92.8185 52.064 92.8185 51.856C92.8185 51.7013 92.7678 51.5813 92.6665 51.496C92.5705 51.4053 92.4425 51.3387 92.2825 51.296C92.1225 51.248 91.9438 51.208 91.7465 51.176C91.5491 51.144 91.3518 51.1067 91.1545 51.064C90.9625 51.0213 90.7865 50.96 90.6265 50.88C90.4665 50.7947 90.3358 50.68 90.2345 50.536C90.1385 50.392 90.0905 50.2 90.0905 49.96C90.0905 49.7307 90.1545 49.5253 90.2825 49.344C90.4105 49.1627 90.5971 49.0213 90.8425 48.92C91.0931 48.8133 91.3971 48.76 91.7545 48.76C92.0265 48.76 92.2985 48.7973 92.5705 48.872C92.8425 48.9413 93.0665 49.0347 93.2425 49.152L92.9945 49.608C92.8078 49.48 92.6078 49.3893 92.3945 49.336C92.1811 49.2773 91.9678 49.248 91.7545 49.248C91.3758 49.248 91.0958 49.3147 90.9145 49.448C90.7385 49.576 90.6505 49.7413 90.6505 49.944C90.6505 50.104 90.6985 50.2293 90.7945 50.32C90.8958 50.4107 91.0265 50.4827 91.1865 50.536C91.3518 50.584 91.5305 50.624 91.7225 50.656C91.9198 50.688 92.1145 50.728 92.3065 50.776C92.5038 50.8187 92.6825 50.88 92.8425 50.96C93.0078 51.0347 93.1385 51.144 93.2345 51.288C93.3358 51.4267 93.3865 51.6107 93.3865 51.84C93.3865 52.0853 93.3171 52.2987 93.1785 52.48C93.0451 52.656 92.8478 52.7947 92.5865 52.896C92.3305 52.992 92.0185 53.04 91.6505 53.04Z" fill="black"/>
</g>
<defs>
<clipPath id="clip0_114_6">
<rect width="113" height="78" rx="39" fill="white"/>
</clipPath>
<clipPath id="clip1_114_6">
<rect x="88" y="31" width="37" height="39" rx="18.5" fill="white"/>
</clipPath>
</defs>
</svg>
