<svg width="170" height="132" viewBox="0 0 170 132" fill="none" xmlns="http://www.w3.org/2000/svg">
<rect width="170" height="132" rx="66" fill="#001524"/>
<path d="M23.9 80.55C23.7667 80.5833 23.6167 80.6 23.45 80.6C23.2833 80.6 23.1167 80.6 22.95 80.6C21.8167 80.6 20.7333 80.4 19.7 80C18.6667 79.6 17.9833 78.8333 17.65 77.7C17.55 77.4 17.5 77.0667 17.5 76.7C17.5 75.8 17.7833 74.9833 18.35 74.25C18.4833 74.1167 18.6167 74.0333 18.75 74C18.85 73.9333 18.9 74 18.9 74.2C19 75.8333 19.5667 77 20.6 77.7C21.6667 78.4333 22.9167 78.8 24.35 78.8C25.7167 78.8 27.1167 78.5167 28.55 77.95C30.0167 77.3833 31.3167 76.6167 32.45 75.65C33.9167 74.35 35.2667 72.85 36.5 71.15C37.7667 69.45 38.9667 67.7333 40.1 66C40.5 65.3333 40.9167 64.6667 41.35 64C41.7833 63.3333 42.2167 62.6833 42.65 62.05H30.2C30.1333 62.05 30.1 62.0167 30.1 61.95C30.1 61.7833 30.2167 61.5833 30.45 61.35C30.7167 61.0833 30.9333 60.95 31.1 60.95H43.35C44.8167 58.7833 46.3333 56.6667 47.9 54.6C49.4667 52.5 51.05 50.5833 52.65 48.85C54.6167 46.7833 56.6667 45.1333 58.8 43.9C60.9667 42.6333 62.9167 41.95 64.65 41.85C65.5833 41.7833 66.4167 41.8333 67.15 42C67.9167 42.1333 68.5333 42.4 69 42.8C69.4333 43.1333 69.75 43.55 69.95 44.05C70.15 44.55 70.25 45.0667 70.25 45.6C70.25 45.7333 70.2333 45.8667 70.2 46C70.2 46.1333 70.1833 46.2833 70.15 46.45C70.05 46.9833 69.85 47.4167 69.55 47.75C69.4167 47.8833 69.2833 47.95 69.15 47.95C68.9167 47.95 68.9 47.8 69.1 47.5C69.4 47.1 69.55 46.6167 69.55 46.05C69.55 45.75 69.5 45.4833 69.4 45.25C69.1667 44.6167 68.7167 44.15 68.05 43.85C67.4167 43.5167 66.6667 43.35 65.8 43.35C63.9333 43.35 61.9667 44.0167 59.9 45.35C58.4 46.3167 56.8667 47.6167 55.3 49.25C53.7667 50.85 52.2167 52.65 50.65 54.65C49.1167 56.65 47.5833 58.75 46.05 60.95H53.4C53.7 60.35 54 59.75 54.3 59.15C54.6333 58.55 54.9667 57.95 55.3 57.35C56.5333 55.1167 57.8 52.9833 59.1 50.95C60.4333 48.8833 61.6167 47.0167 62.65 45.35C62.75 45.1833 62.85 45.1 62.95 45.1C63.0833 45.1 63.1667 45.1667 63.2 45.3C63.2333 45.4333 63.2 45.55 63.1 45.65C61.5667 47.9833 60.2167 50.45 59.05 53.05C57.9167 55.65 56.8833 58.2833 55.95 60.95H58.4C58.4667 60.95 58.5 60.9833 58.5 61.05C58.5 61.1833 58.3667 61.3833 58.1 61.65C57.8667 61.9167 57.65 62.05 57.45 62.05H55.55C55.25 62.9167 54.8833 64.0833 54.45 65.55C54.05 66.9833 53.6833 68.4833 53.35 70.05C53.05 71.6167 52.9 73.05 52.9 74.35C52.9 75.55 53.0833 76.4833 53.45 77.15C53.85 77.8167 54.4667 78.15 55.3 78.15C55.4 78.15 55.5 78.15 55.6 78.15C55.7 78.15 55.8 78.1333 55.9 78.1C56.4667 78 57.0333 77.6833 57.6 77.15C58.2 76.6167 58.7833 75.9833 59.35 75.25C60.15 74.2167 60.8833 73.1167 61.55 71.95C62.2167 70.7833 62.7167 69.8833 63.05 69.25C63.2167 68.9833 63.35 68.85 63.45 68.85C63.5833 68.85 63.65 68.9667 63.65 69.2C63.65 69.3333 63.6 69.5 63.5 69.7C63.0333 70.5333 62.4333 71.5833 61.7 72.85C61 74.0833 60.2167 75.2333 59.35 76.3C58.7167 77.0333 58.05 77.6667 57.35 78.2C56.65 78.7333 55.9167 79.0667 55.15 79.2C54.95 79.2333 54.75 79.25 54.55 79.25C54.3833 79.2833 54.2 79.3 54 79.3C53.0333 79.3 52.1833 79.0167 51.45 78.45C50.7167 77.9167 50.2167 77 49.95 75.7C49.8833 75.3333 49.8333 74.95 49.8 74.55C49.7667 74.15 49.75 73.7667 49.75 73.4C49.75 71.4667 50.0833 69.5167 50.75 67.55C51.45 65.5833 52.1667 63.75 52.9 62.05H45.2C44.6667 62.7833 44.15 63.55 43.65 64.35C43.15 65.1167 42.6333 65.8833 42.1 66.65C41.1333 68.05 39.9667 69.5333 38.6 71.1C37.2667 72.6333 35.8 74.1 34.2 75.5C32.6 76.8667 30.9167 78.0167 29.15 78.95C27.4167 79.8833 25.6667 80.4167 23.9 80.55ZM64.832 77.35C64.0987 77.35 63.4154 77.1167 62.782 76.65C62.1487 76.15 61.832 75.35 61.832 74.25C61.832 73.0833 62.1154 71.8 62.682 70.4C63.2487 69 63.782 67.75 64.282 66.65C64.5487 66.1167 64.8987 65.4 65.332 64.5C65.7987 63.5667 66.2987 62.65 66.832 61.75H64.482C64.382 61.75 64.332 61.6667 64.332 61.5C64.332 61.3667 64.382 61.2333 64.482 61.1C64.582 60.9333 64.6987 60.85 64.832 60.85C65.7654 60.85 66.4654 60.7667 66.932 60.6C67.3987 60.4333 67.7987 60.2 68.132 59.9C68.6654 59.4333 69.182 58.8333 69.682 58.1C70.2154 57.3667 70.732 56.7333 71.232 56.2C71.5987 55.7333 72.0487 55.3833 72.582 55.15C73.1487 54.9167 73.5154 54.8333 73.682 54.9C73.5154 55.1333 73.2487 55.5333 72.882 56.1C72.5154 56.6667 72.132 57.2833 71.732 57.95C71.332 58.6167 70.9654 59.2333 70.632 59.8C70.2987 60.3667 70.082 60.75 69.982 60.95H76.182C77.0487 59.05 78.032 57.05 79.132 54.95C80.2654 52.85 81.5154 50.85 82.882 48.95C84.2487 47.0167 85.732 45.3333 87.332 43.9C88.932 42.4667 90.632 41.4667 92.432 40.9C92.632 40.8667 92.832 40.8333 93.032 40.8C93.232 40.7667 93.432 40.75 93.632 40.75C94.132 40.75 94.5654 40.8667 94.932 41.1C95.3987 41.4 95.632 41.9333 95.632 42.7C95.632 43.2333 95.482 43.8833 95.182 44.65C94.6487 45.9833 93.7654 47.4167 92.532 48.95C91.332 50.4833 89.9154 52.05 88.282 53.65C86.2487 55.6167 84.2987 57.35 82.432 58.85C80.5654 60.35 79.0654 61.5333 77.932 62.4C77.2654 63.8333 76.7154 65.0833 76.282 66.15C75.8487 67.1833 75.5654 67.9333 75.432 68.4C75.9654 67.6 76.5654 66.7333 77.232 65.8C77.932 64.8333 78.5487 64.0833 79.082 63.55C79.8487 62.7833 80.6154 62.1333 81.382 61.6C82.1487 61.0667 82.8987 60.7667 83.632 60.7C84.7654 60.6 85.582 60.75 86.082 61.15C86.582 61.5167 86.832 62.0667 86.832 62.8C86.832 63.5333 86.632 64.35 86.232 65.25C85.7987 66.2833 85.282 67.3167 84.682 68.35C84.082 69.3833 83.532 70.3833 83.032 71.35C82.8987 71.6167 82.6487 72.1333 82.282 72.9C81.9487 73.6333 81.732 74.3333 81.632 75C81.632 75.0333 81.6154 75.0833 81.582 75.15C81.582 75.2167 81.582 75.2833 81.582 75.35C81.582 75.7167 81.682 76 81.882 76.2C82.082 76.3667 82.3154 76.45 82.582 76.45C83.1487 76.45 83.682 76.2667 84.182 75.9C84.682 75.5333 85.1154 75.1333 85.482 74.7C86.2487 73.8667 86.9487 72.95 87.582 71.95C88.2154 70.95 88.8487 69.8833 89.482 68.75C89.582 68.6167 89.682 68.55 89.782 68.55C89.9154 68.55 89.982 68.65 89.982 68.85C89.982 69.0167 89.9487 69.15 89.882 69.25C89.282 70.35 88.632 71.45 87.932 72.55C87.2654 73.65 86.4487 74.6833 85.482 75.65C85.0487 76.0833 84.5487 76.4833 83.982 76.85C83.4154 77.1833 82.782 77.35 82.082 77.35C80.9487 77.35 80.1487 77.0333 79.682 76.4C79.2487 75.7333 79.032 75 79.032 74.2C79.032 73.5667 79.1487 72.9333 79.382 72.3C79.9487 70.8333 80.732 69.4333 81.732 68.1C82.732 66.7667 83.5654 65.3833 84.232 63.95C84.4654 63.5167 84.582 63.1167 84.582 62.75C84.582 62.35 84.4654 62.05 84.232 61.85C83.9987 61.65 83.7487 61.55 83.482 61.55C82.8487 61.55 82.1487 61.8333 81.382 62.4C80.6487 62.9333 79.932 63.6167 79.232 64.45C78.5987 65.1833 77.9487 66.0333 77.282 67C76.6154 67.9333 75.982 68.9333 75.382 70C74.8154 70.9667 74.232 71.9833 73.632 73.05C73.032 74.0833 72.5487 74.9667 72.182 75.7C71.9154 76.2667 71.632 76.6333 71.332 76.8C71.032 76.9667 70.7487 77.05 70.482 77.05C70.3487 77.05 70.2154 77.0333 70.082 77C69.9487 77 69.832 77 69.732 77C70.032 75.8667 70.582 74.3167 71.382 72.35C72.2154 70.35 73.1987 67.9833 74.332 65.25C74.5654 64.7167 74.7987 64.1667 75.032 63.6C75.2654 63 75.532 62.3833 75.832 61.75H69.532C68.932 62.7833 68.2154 64.1333 67.382 65.8C66.582 67.4333 65.8654 69.0167 65.232 70.55C65.1654 70.75 65.032 71.1167 64.832 71.65C64.632 72.15 64.4487 72.7167 64.282 73.35C64.1487 73.95 64.082 74.5167 64.082 75.05C64.082 75.4833 64.1654 75.85 64.332 76.15C64.4987 76.45 64.7987 76.6 65.232 76.6C65.732 76.6 66.232 76.4333 66.732 76.1C67.232 75.7333 67.6154 75.3333 67.882 74.9C67.982 74.7667 68.0487 74.7 68.082 74.7C68.182 74.7 68.232 74.8 68.232 75C68.232 75.3 68.1154 75.5667 67.882 75.8C67.5154 76.2 67.0654 76.5667 66.532 76.9C66.032 77.2 65.4654 77.35 64.832 77.35ZM78.382 61.4C80.382 59.9333 82.182 58.45 83.782 56.95C85.382 55.45 86.9987 53.8333 88.632 52.1C89.0987 51.6 89.6987 50.9333 90.432 50.1C91.1987 49.2667 91.9487 48.3667 92.682 47.4C93.4154 46.4333 93.9654 45.5 94.332 44.6C94.6654 43.8333 94.832 43.1833 94.832 42.65C94.832 41.75 94.4154 41.3 93.582 41.3C93.1487 41.3 92.6654 41.4333 92.132 41.7C91.5987 41.9667 91.0987 42.3333 90.632 42.8C89.032 44.3 87.4654 46.1333 85.932 48.3C84.432 50.4333 83.032 52.65 81.732 54.95C80.4654 57.25 79.3487 59.4 78.382 61.4ZM94.0039 77.4C92.0706 77.4 90.7039 76.9 89.9039 75.9C89.5039 75.4667 89.2206 74.95 89.0539 74.35C88.8872 73.75 88.8039 73.1333 88.8039 72.5C88.8039 71.7 88.9039 70.9 89.1039 70.1C89.3039 69.2667 89.5539 68.5 89.8539 67.8C90.3206 66.7 90.9372 65.6 91.7039 64.5C92.4706 63.3667 93.3872 62.4167 94.4539 61.65C95.5539 60.8833 96.7539 60.5 98.0539 60.5C98.9206 60.5 99.6039 60.7167 100.104 61.15C100.604 61.5833 100.854 62.25 100.854 63.15C100.854 64.1833 100.537 65.2333 99.9039 66.3C99.2706 67.3333 98.4706 68.2 97.5039 68.9C96.5372 69.6 95.5372 69.95 94.5039 69.95C93.5706 69.95 92.7539 69.6167 92.0539 68.95C91.8539 69.4833 91.6872 70.0833 91.5539 70.75C91.4206 71.3833 91.3539 72.0333 91.3539 72.7C91.3539 73.7333 91.5539 74.6333 91.9539 75.4C92.3872 76.1667 93.1539 76.55 94.2539 76.55C95.0539 76.55 95.8206 76.35 96.5539 75.95C97.3206 75.5167 98.0039 75 98.6039 74.4C99.2706 73.7 99.9039 72.95 100.504 72.15C101.104 71.35 101.687 70.4167 102.254 69.35C102.321 69.25 102.371 69.2 102.404 69.2C102.537 69.2 102.604 69.35 102.604 69.65C102.604 69.85 102.537 70.0667 102.404 70.3C101.904 71.2 101.321 72.1167 100.654 73.05C99.9872 73.95 99.3039 74.7333 98.6039 75.4C97.9706 76 97.2872 76.4833 96.5539 76.85C95.8206 77.2167 94.9706 77.4 94.0039 77.4ZM92.3039 68.2C92.5372 68.5333 92.8039 68.7833 93.1039 68.95C93.4372 69.0833 93.7706 69.15 94.1039 69.15C94.9039 69.15 95.7372 68.85 96.6039 68.25C97.4706 67.6167 98.1706 66.8833 98.7039 66.05C98.9372 65.6833 99.1372 65.2 99.3039 64.6C99.5039 64 99.6039 63.4333 99.6039 62.9C99.6039 62.4333 99.5039 62.0333 99.3039 61.7C99.1372 61.3333 98.7872 61.15 98.2539 61.15C97.6539 61.15 96.9372 61.5167 96.1039 62.25C95.3039 62.9833 94.5372 63.9333 93.8039 65.1C93.5706 65.5 93.3039 65.9667 93.0039 66.5C92.7372 67.0333 92.5039 67.6 92.3039 68.2ZM111.49 77.3C110.523 77.3 109.757 77 109.19 76.4C108.657 75.8 108.39 75.05 108.39 74.15C108.39 73.7167 108.473 73.2167 108.64 72.65C109.107 71.1833 109.84 69.7333 110.84 68.3C111.873 66.8333 112.723 65.3833 113.39 63.95C113.623 63.4833 113.74 63.0667 113.74 62.7C113.74 62.3333 113.623 62.0667 113.39 61.9C113.19 61.7 112.94 61.6 112.64 61.6C112.207 61.6 111.657 61.7833 110.99 62.15C110.357 62.4833 109.623 63.1333 108.79 64.1C108.29 64.7 107.723 65.4333 107.09 66.3C106.457 67.1667 105.94 67.95 105.54 68.65C104.873 69.7833 104.273 70.9333 103.74 72.1C103.207 73.2333 102.74 74.2833 102.34 75.25C102.007 76.0167 101.607 76.5167 101.14 76.75C100.673 76.95 100.223 77.0333 99.7898 77C99.3565 76.9667 99.0232 76.9667 98.7898 77C99.7232 75.1667 100.64 73.2333 101.54 71.2C102.44 69.1667 103.207 67.1333 103.84 65.1C104.14 64.1667 104.39 63.2667 104.59 62.4C104.79 61.5 104.873 60.9167 104.84 60.65V60.55C104.84 60.2833 104.973 60.2167 105.24 60.35C105.673 60.5833 105.973 60.9333 106.14 61.4C106.307 61.8333 106.39 62.3333 106.39 62.9C106.39 63.5333 106.307 64.2167 106.14 64.95C105.973 65.65 105.773 66.2833 105.54 66.85C105.973 66.25 106.44 65.65 106.94 65.05C107.44 64.4167 107.99 63.8167 108.59 63.25C109.29 62.55 110.04 61.95 110.84 61.45C111.64 60.9167 112.507 60.65 113.44 60.65C114.34 60.65 114.99 60.85 115.39 61.25C115.823 61.65 116.04 62.1833 116.04 62.85C116.04 63.55 115.84 64.35 115.44 65.25C115.007 66.2833 114.473 67.3167 113.84 68.35C113.24 69.3833 112.69 70.3833 112.19 71.35C112.09 71.55 111.923 71.8667 111.69 72.3C111.49 72.7 111.307 73.15 111.14 73.65C111.073 73.8833 111.007 74.1333 110.94 74.4C110.873 74.6333 110.84 74.8833 110.84 75.15C110.84 75.4833 110.907 75.8 111.04 76.1C111.207 76.3667 111.507 76.5 111.94 76.5C112.507 76.5 113.04 76.3167 113.54 75.95C114.073 75.55 114.523 75.1333 114.89 74.7C115.657 73.8667 116.357 72.95 116.99 71.95C117.657 70.9167 118.307 69.8333 118.94 68.7C119.04 68.5667 119.107 68.5 119.14 68.5C119.273 68.5 119.34 68.65 119.34 68.95C119.34 69.15 119.307 69.3 119.24 69.4C118.64 70.5 118.007 71.5833 117.34 72.65C116.673 73.6833 115.857 74.6833 114.89 75.65C114.457 76.0833 113.957 76.4667 113.39 76.8C112.823 77.1333 112.19 77.3 111.49 77.3ZM129.248 77.35C128.182 77.35 127.448 77.0167 127.048 76.35C126.648 75.65 126.448 74.8833 126.448 74.05C126.448 73.8833 126.465 73.6 126.498 73.2C126.565 72.7667 126.632 72.3667 126.698 72C126.232 72.6333 125.665 73.3333 124.998 74.1C124.365 74.8667 123.715 75.5167 123.048 76.05C121.982 76.9167 121.015 77.35 120.148 77.35C119.315 77.35 118.665 77 118.198 76.3C117.765 75.6 117.548 74.7167 117.548 73.65C117.548 72.2833 117.848 70.9 118.448 69.5C119.048 68.1 119.832 66.7833 120.798 65.55C121.798 64.2833 122.898 63.2 124.098 62.3C124.798 61.8 125.648 61.4 126.648 61.1C127.682 60.7667 128.715 60.6 129.748 60.6C130.915 60.6 131.932 60.7833 132.798 61.15C133.698 61.4833 134.315 61.9667 134.648 62.6C133.948 63.5 133.232 64.6167 132.498 65.95C131.765 67.25 131.132 68.4333 130.598 69.5C130.232 70.2333 129.832 71.15 129.398 72.25C128.965 73.3167 128.748 74.2333 128.748 75C128.748 75.3333 128.832 75.6667 128.998 76C129.165 76.3333 129.482 76.5 129.948 76.5C130.482 76.5 130.998 76.3 131.498 75.9C131.998 75.5 132.415 75.1 132.748 74.7C133.515 73.8667 134.215 72.95 134.848 71.95C135.482 70.95 136.115 69.8833 136.748 68.75C136.848 68.6167 136.948 68.55 137.048 68.55C137.182 68.55 137.248 68.65 137.248 68.85C137.248 69.0167 137.215 69.15 137.148 69.25C136.582 70.35 135.948 71.45 135.248 72.55C134.548 73.65 133.715 74.6833 132.748 75.65C132.282 76.1167 131.732 76.5167 131.098 76.85C130.465 77.1833 129.848 77.35 129.248 77.35ZM121.248 75.8C121.882 75.8 122.565 75.4667 123.298 74.8C124.065 74.1 124.798 73.2667 125.498 72.3C126.232 71.3 126.882 70.35 127.448 69.45C128.048 68.5167 128.515 67.8 128.848 67.3C129.548 66.2 130.198 65.2833 130.798 64.55C131.398 63.8167 132.332 63.25 133.598 62.85C133.665 62.85 133.715 62.85 133.748 62.85C133.815 62.8167 133.882 62.8 133.948 62.8C133.648 62.3333 133.148 61.9833 132.448 61.75C131.748 61.5167 131.065 61.4 130.398 61.4C129.365 61.4 128.365 61.6833 127.398 62.25C126.432 62.8167 125.548 63.5333 124.748 64.4C123.982 65.3 123.232 66.2833 122.498 67.35C121.765 68.4167 121.165 69.5 120.698 70.6C120.265 71.7 120.048 72.75 120.048 73.75C120.048 74.2833 120.132 74.7667 120.298 75.2C120.498 75.6 120.815 75.8 121.248 75.8Z" fill="#F7DCDC"/>
<g clip-path="url(#clip0_1_24)">
<path d="M141.064 74V69.1H141.491L143.731 72.922H143.507L145.726 69.1H146.153V74H145.656V69.877H145.775L143.731 73.377H143.486L141.428 69.877H141.561V74H141.064ZM147.749 74V69.1H149.744C150.267 69.1 150.724 69.205 151.116 69.415C151.513 69.6203 151.821 69.9073 152.04 70.276C152.26 70.6447 152.369 71.0693 152.369 71.55C152.369 72.0307 152.26 72.4553 152.04 72.824C151.821 73.1927 151.513 73.482 151.116 73.692C150.724 73.8973 150.267 74 149.744 74H147.749ZM148.267 73.552H149.716C150.15 73.552 150.526 73.468 150.843 73.3C151.165 73.1273 151.415 72.8917 151.592 72.593C151.77 72.2897 151.858 71.942 151.858 71.55C151.858 71.1533 151.77 70.8057 151.592 70.507C151.415 70.2083 151.165 69.975 150.843 69.807C150.526 69.6343 150.15 69.548 149.716 69.548H148.267V73.552Z" fill="#FFFBFB"/>
</g>
<path d="M48.3877 91L46.6057 86.275H47.2177L48.8377 90.658H48.5587L50.2237 86.275H50.7727L52.4197 90.658H52.1407L53.7877 86.275H54.3727L52.5817 91H51.9787L50.3947 86.878H50.5837L48.9907 91H48.3877ZM55.3348 91V86.275H55.9738V91H55.3348ZM55.6588 85.231C55.5268 85.231 55.4158 85.186 55.3258 85.096C55.2358 85.006 55.1908 84.898 55.1908 84.772C55.1908 84.646 55.2358 84.541 55.3258 84.457C55.4158 84.367 55.5268 84.322 55.6588 84.322C55.7908 84.322 55.9018 84.364 55.9918 84.448C56.0818 84.532 56.1268 84.637 56.1268 84.763C56.1268 84.895 56.0818 85.006 55.9918 85.096C55.9078 85.186 55.7968 85.231 55.6588 85.231ZM59.0208 91.045C58.6308 91.045 58.2618 90.991 57.9138 90.883C57.5658 90.769 57.2928 90.628 57.0948 90.46L57.3828 89.956C57.5748 90.1 57.8208 90.226 58.1208 90.334C58.4208 90.436 58.7358 90.487 59.0658 90.487C59.5158 90.487 59.8398 90.418 60.0378 90.28C60.2358 90.136 60.3348 89.947 60.3348 89.713C60.3348 89.539 60.2778 89.404 60.1638 89.308C60.0558 89.206 59.9118 89.131 59.7318 89.083C59.5518 89.029 59.3508 88.984 59.1288 88.948C58.9068 88.912 58.6848 88.87 58.4628 88.822C58.2468 88.774 58.0488 88.705 57.8688 88.615C57.6888 88.519 57.5418 88.39 57.4278 88.228C57.3198 88.066 57.2658 87.85 57.2658 87.58C57.2658 87.322 57.3378 87.091 57.4818 86.887C57.6258 86.683 57.8358 86.524 58.1118 86.41C58.3938 86.29 58.7358 86.23 59.1378 86.23C59.4438 86.23 59.7498 86.272 60.0558 86.356C60.3618 86.434 60.6138 86.539 60.8118 86.671L60.5328 87.184C60.3228 87.04 60.0978 86.938 59.8578 86.878C59.6178 86.812 59.3778 86.779 59.1378 86.779C58.7118 86.779 58.3968 86.854 58.1928 87.004C57.9948 87.148 57.8958 87.334 57.8958 87.562C57.8958 87.742 57.9498 87.883 58.0578 87.985C58.1718 88.087 58.3188 88.168 58.4988 88.228C58.6848 88.282 58.8858 88.327 59.1018 88.363C59.3238 88.399 59.5428 88.444 59.7588 88.498C59.9808 88.546 60.1818 88.615 60.3618 88.705C60.5478 88.789 60.6948 88.912 60.8028 89.074C60.9168 89.23 60.9738 89.437 60.9738 89.695C60.9738 89.971 60.8958 90.211 60.7398 90.415C60.5898 90.613 60.3678 90.769 60.0738 90.883C59.7858 90.991 59.4348 91.045 59.0208 91.045ZM64.0274 91.045C63.5774 91.045 63.1724 90.943 62.8124 90.739C62.4584 90.535 62.1794 90.253 61.9754 89.893C61.7714 89.527 61.6694 89.107 61.6694 88.633C61.6694 88.153 61.7714 87.733 61.9754 87.373C62.1794 87.013 62.4584 86.734 62.8124 86.536C63.1724 86.332 63.5774 86.23 64.0274 86.23C64.4414 86.23 64.8104 86.323 65.1344 86.509C65.4644 86.695 65.7254 86.968 65.9174 87.328C66.1154 87.682 66.2144 88.117 66.2144 88.633C66.2144 89.143 66.1184 89.578 65.9264 89.938C65.7344 90.298 65.4734 90.574 65.1434 90.766C64.8194 90.952 64.4474 91.045 64.0274 91.045ZM64.0724 90.478C64.4084 90.478 64.7084 90.403 64.9724 90.253C65.2424 90.097 65.4524 89.881 65.6024 89.605C65.7584 89.323 65.8364 88.999 65.8364 88.633C65.8364 88.261 65.7584 87.937 65.6024 87.661C65.4524 87.385 65.2424 87.172 64.9724 87.022C64.7084 86.866 64.4084 86.788 64.0724 86.788C63.7424 86.788 63.4454 86.866 63.1814 87.022C62.9174 87.172 62.7074 87.385 62.5514 87.661C62.3954 87.937 62.3174 88.261 62.3174 88.633C62.3174 88.999 62.3954 89.323 62.5514 89.605C62.7074 89.881 62.9174 90.097 63.1814 90.253C63.4454 90.403 63.7424 90.478 64.0724 90.478ZM65.8544 91V89.578L65.9174 88.624L65.8274 87.67V84.322H66.4664V91H65.8544ZM70.172 91.045C69.716 91.045 69.305 90.943 68.939 90.739C68.579 90.529 68.294 90.244 68.084 89.884C67.874 89.518 67.769 89.101 67.769 88.633C67.769 88.159 67.874 87.742 68.084 87.382C68.294 87.022 68.579 86.74 68.939 86.536C69.299 86.332 69.71 86.23 70.172 86.23C70.64 86.23 71.054 86.332 71.414 86.536C71.78 86.74 72.065 87.022 72.269 87.382C72.479 87.742 72.584 88.159 72.584 88.633C72.584 89.101 72.479 89.518 72.269 89.884C72.065 90.244 71.78 90.529 71.414 90.739C71.048 90.943 70.634 91.045 70.172 91.045ZM70.172 90.478C70.514 90.478 70.817 90.403 71.081 90.253C71.345 90.097 71.552 89.881 71.702 89.605C71.858 89.323 71.936 88.999 71.936 88.633C71.936 88.261 71.858 87.937 71.702 87.661C71.552 87.385 71.345 87.172 71.081 87.022C70.817 86.866 70.517 86.788 70.181 86.788C69.845 86.788 69.545 86.866 69.281 87.022C69.017 87.172 68.807 87.385 68.651 87.661C68.495 87.937 68.417 88.261 68.417 88.633C68.417 88.999 68.495 89.323 68.651 89.605C68.807 89.881 69.017 90.097 69.281 90.253C69.545 90.403 69.842 90.478 70.172 90.478ZM79.7926 86.23C80.1766 86.23 80.5096 86.305 80.7916 86.455C81.0796 86.599 81.3016 86.821 81.4576 87.121C81.6196 87.421 81.7006 87.799 81.7006 88.255V91H81.0616V88.318C81.0616 87.82 80.9416 87.445 80.7016 87.193C80.4676 86.935 80.1346 86.806 79.7026 86.806C79.3786 86.806 79.0966 86.875 78.8566 87.013C78.6226 87.145 78.4396 87.34 78.3076 87.598C78.1816 87.85 78.1186 88.156 78.1186 88.516V91H77.4796V88.318C77.4796 87.82 77.3596 87.445 77.1196 87.193C76.8796 86.935 76.5436 86.806 76.1116 86.806C75.7936 86.806 75.5146 86.875 75.2746 87.013C75.0346 87.145 74.8486 87.34 74.7166 87.598C74.5906 87.85 74.5276 88.156 74.5276 88.516V91H73.8886V86.275H74.5006V87.553L74.4016 87.328C74.5456 86.986 74.7766 86.719 75.0946 86.527C75.4186 86.329 75.7996 86.23 76.2376 86.23C76.6996 86.23 77.0926 86.347 77.4166 86.581C77.7406 86.809 77.9506 87.154 78.0466 87.616L77.7946 87.517C77.9326 87.133 78.1756 86.824 78.5236 86.59C78.8776 86.35 79.3006 86.23 79.7926 86.23ZM85.8969 91V85.681C85.8969 85.261 86.0199 84.922 86.2659 84.664C86.5119 84.406 86.8659 84.277 87.3279 84.277C87.5079 84.277 87.6819 84.301 87.8499 84.349C88.0179 84.397 88.1589 84.472 88.2729 84.574L88.0569 85.051C87.9669 84.973 87.8619 84.916 87.7419 84.88C87.6219 84.838 87.4929 84.817 87.3549 84.817C87.0849 84.817 86.8779 84.892 86.7339 85.042C86.5899 85.192 86.5179 85.414 86.5179 85.708V86.428L86.5359 86.725V91H85.8969ZM85.0509 86.806V86.275H87.9759V86.806H85.0509ZM90.6857 91.045C90.2297 91.045 89.8187 90.943 89.4527 90.739C89.0927 90.529 88.8077 90.244 88.5977 89.884C88.3877 89.518 88.2827 89.101 88.2827 88.633C88.2827 88.159 88.3877 87.742 88.5977 87.382C88.8077 87.022 89.0927 86.74 89.4527 86.536C89.8127 86.332 90.2237 86.23 90.6857 86.23C91.1537 86.23 91.5677 86.332 91.9277 86.536C92.2937 86.74 92.5787 87.022 92.7827 87.382C92.9927 87.742 93.0977 88.159 93.0977 88.633C93.0977 89.101 92.9927 89.518 92.7827 89.884C92.5787 90.244 92.2937 90.529 91.9277 90.739C91.5617 90.943 91.1477 91.045 90.6857 91.045ZM90.6857 90.478C91.0277 90.478 91.3307 90.403 91.5947 90.253C91.8587 90.097 92.0657 89.881 92.2157 89.605C92.3717 89.323 92.4497 88.999 92.4497 88.633C92.4497 88.261 92.3717 87.937 92.2157 87.661C92.0657 87.385 91.8587 87.172 91.5947 87.022C91.3307 86.866 91.0307 86.788 90.6947 86.788C90.3587 86.788 90.0587 86.866 89.7947 87.022C89.5307 87.172 89.3207 87.385 89.1647 87.661C89.0087 87.937 88.9307 88.261 88.9307 88.633C88.9307 88.999 89.0087 89.323 89.1647 89.605C89.3207 89.881 89.5307 90.097 89.7947 90.253C90.0587 90.403 90.3557 90.478 90.6857 90.478ZM94.4022 91V86.275H95.0142V87.562L94.9512 87.337C95.0832 86.977 95.3052 86.704 95.6172 86.518C95.9292 86.326 96.3162 86.23 96.7782 86.23V86.851C96.7542 86.851 96.7302 86.851 96.7062 86.851C96.6822 86.845 96.6582 86.842 96.6342 86.842C96.1362 86.842 95.7462 86.995 95.4642 87.301C95.1822 87.601 95.0412 88.03 95.0412 88.588V91H94.4022ZM102.251 91.045C101.801 91.045 101.396 90.943 101.036 90.739C100.682 90.535 100.403 90.253 100.199 89.893C99.995 89.527 99.893 89.107 99.893 88.633C99.893 88.153 99.995 87.733 100.199 87.373C100.403 87.013 100.682 86.734 101.036 86.536C101.396 86.332 101.801 86.23 102.251 86.23C102.665 86.23 103.034 86.323 103.358 86.509C103.688 86.695 103.949 86.968 104.141 87.328C104.339 87.682 104.438 88.117 104.438 88.633C104.438 89.143 104.342 89.578 104.15 89.938C103.958 90.298 103.697 90.574 103.367 90.766C103.043 90.952 102.671 91.045 102.251 91.045ZM102.296 90.478C102.632 90.478 102.932 90.403 103.196 90.253C103.466 90.097 103.676 89.881 103.826 89.605C103.982 89.323 104.06 88.999 104.06 88.633C104.06 88.261 103.982 87.937 103.826 87.661C103.676 87.385 103.466 87.172 103.196 87.022C102.932 86.866 102.632 86.788 102.296 86.788C101.966 86.788 101.669 86.866 101.405 87.022C101.141 87.172 100.931 87.385 100.775 87.661C100.619 87.937 100.541 88.261 100.541 88.633C100.541 88.999 100.619 89.323 100.775 89.605C100.931 89.881 101.141 90.097 101.405 90.253C101.669 90.403 101.966 90.478 102.296 90.478ZM104.078 91V89.578L104.141 88.624L104.051 87.67V84.322H104.69V91H104.078ZM108.396 91.045C107.94 91.045 107.529 90.943 107.163 90.739C106.803 90.529 106.518 90.244 106.308 89.884C106.098 89.518 105.993 89.101 105.993 88.633C105.993 88.159 106.098 87.742 106.308 87.382C106.518 87.022 106.803 86.74 107.163 86.536C107.523 86.332 107.934 86.23 108.396 86.23C108.864 86.23 109.278 86.332 109.638 86.536C110.004 86.74 110.289 87.022 110.493 87.382C110.703 87.742 110.808 88.159 110.808 88.633C110.808 89.101 110.703 89.518 110.493 89.884C110.289 90.244 110.004 90.529 109.638 90.739C109.272 90.943 108.858 91.045 108.396 91.045ZM108.396 90.478C108.738 90.478 109.041 90.403 109.305 90.253C109.569 90.097 109.776 89.881 109.926 89.605C110.082 89.323 110.16 88.999 110.16 88.633C110.16 88.261 110.082 87.937 109.926 87.661C109.776 87.385 109.569 87.172 109.305 87.022C109.041 86.866 108.741 86.788 108.405 86.788C108.069 86.788 107.769 86.866 107.505 87.022C107.241 87.172 107.031 87.385 106.875 87.661C106.719 87.937 106.641 88.261 106.641 88.633C106.641 88.999 106.719 89.323 106.875 89.605C107.031 89.881 107.241 90.097 107.505 90.253C107.769 90.403 108.066 90.478 108.396 90.478ZM114.074 91.045C113.606 91.045 113.186 90.943 112.814 90.739C112.448 90.529 112.16 90.244 111.95 89.884C111.74 89.518 111.635 89.101 111.635 88.633C111.635 88.159 111.74 87.742 111.95 87.382C112.16 87.022 112.448 86.74 112.814 86.536C113.186 86.332 113.606 86.23 114.074 86.23C114.476 86.23 114.839 86.308 115.163 86.464C115.487 86.62 115.742 86.854 115.928 87.166L115.451 87.49C115.289 87.25 115.088 87.073 114.848 86.959C114.608 86.845 114.347 86.788 114.065 86.788C113.729 86.788 113.426 86.866 113.156 87.022C112.886 87.172 112.673 87.385 112.517 87.661C112.361 87.937 112.283 88.261 112.283 88.633C112.283 89.005 112.361 89.329 112.517 89.605C112.673 89.881 112.886 90.097 113.156 90.253C113.426 90.403 113.729 90.478 114.065 90.478C114.347 90.478 114.608 90.421 114.848 90.307C115.088 90.193 115.289 90.019 115.451 89.785L115.928 90.109C115.742 90.415 115.487 90.649 115.163 90.811C114.839 90.967 114.476 91.045 114.074 91.045ZM118.73 91.045C118.286 91.045 117.944 90.925 117.704 90.685C117.464 90.445 117.344 90.106 117.344 89.668V85.231H117.983V89.632C117.983 89.908 118.052 90.121 118.19 90.271C118.334 90.421 118.538 90.496 118.802 90.496C119.084 90.496 119.318 90.415 119.504 90.253L119.729 90.712C119.603 90.826 119.45 90.91 119.27 90.964C119.096 91.018 118.916 91.045 118.73 91.045ZM116.498 86.806V86.275H119.423V86.806H116.498ZM122.651 91.045C122.195 91.045 121.784 90.943 121.418 90.739C121.058 90.529 120.773 90.244 120.563 89.884C120.353 89.518 120.248 89.101 120.248 88.633C120.248 88.159 120.353 87.742 120.563 87.382C120.773 87.022 121.058 86.74 121.418 86.536C121.778 86.332 122.189 86.23 122.651 86.23C123.119 86.23 123.533 86.332 123.893 86.536C124.259 86.74 124.544 87.022 124.748 87.382C124.958 87.742 125.063 88.159 125.063 88.633C125.063 89.101 124.958 89.518 124.748 89.884C124.544 90.244 124.259 90.529 123.893 90.739C123.527 90.943 123.113 91.045 122.651 91.045ZM122.651 90.478C122.993 90.478 123.296 90.403 123.56 90.253C123.824 90.097 124.031 89.881 124.181 89.605C124.337 89.323 124.415 88.999 124.415 88.633C124.415 88.261 124.337 87.937 124.181 87.661C124.031 87.385 123.824 87.172 123.56 87.022C123.296 86.866 122.996 86.788 122.66 86.788C122.324 86.788 122.024 86.866 121.76 87.022C121.496 87.172 121.286 87.385 121.13 87.661C120.974 87.937 120.896 88.261 120.896 88.633C120.896 88.999 120.974 89.323 121.13 89.605C121.286 89.881 121.496 90.097 121.76 90.253C122.024 90.403 122.321 90.478 122.651 90.478ZM126.368 91V86.275H126.98V87.562L126.917 87.337C127.049 86.977 127.271 86.704 127.583 86.518C127.895 86.326 128.282 86.23 128.744 86.23V86.851C128.72 86.851 128.696 86.851 128.672 86.851C128.648 86.845 128.624 86.842 128.6 86.842C128.102 86.842 127.712 86.995 127.43 87.301C127.148 87.601 127.007 88.03 127.007 88.588V91H126.368ZM131.232 91.045C130.842 91.045 130.473 90.991 130.125 90.883C129.777 90.769 129.504 90.628 129.306 90.46L129.594 89.956C129.786 90.1 130.032 90.226 130.332 90.334C130.632 90.436 130.947 90.487 131.277 90.487C131.727 90.487 132.051 90.418 132.249 90.28C132.447 90.136 132.546 89.947 132.546 89.713C132.546 89.539 132.489 89.404 132.375 89.308C132.267 89.206 132.123 89.131 131.943 89.083C131.763 89.029 131.562 88.984 131.34 88.948C131.118 88.912 130.896 88.87 130.674 88.822C130.458 88.774 130.26 88.705 130.08 88.615C129.9 88.519 129.753 88.39 129.639 88.228C129.531 88.066 129.477 87.85 129.477 87.58C129.477 87.322 129.549 87.091 129.693 86.887C129.837 86.683 130.047 86.524 130.323 86.41C130.605 86.29 130.947 86.23 131.349 86.23C131.655 86.23 131.961 86.272 132.267 86.356C132.573 86.434 132.825 86.539 133.023 86.671L132.744 87.184C132.534 87.04 132.309 86.938 132.069 86.878C131.829 86.812 131.589 86.779 131.349 86.779C130.923 86.779 130.608 86.854 130.404 87.004C130.206 87.148 130.107 87.334 130.107 87.562C130.107 87.742 130.161 87.883 130.269 87.985C130.383 88.087 130.53 88.168 130.71 88.228C130.896 88.282 131.097 88.327 131.313 88.363C131.535 88.399 131.754 88.444 131.97 88.498C132.192 88.546 132.393 88.615 132.573 88.705C132.759 88.789 132.906 88.912 133.014 89.074C133.128 89.23 133.185 89.437 133.185 89.695C133.185 89.971 133.107 90.211 132.951 90.415C132.801 90.613 132.579 90.769 132.285 90.883C131.997 90.991 131.646 91.045 131.232 91.045Z" fill="#FFFBFB"/>
<defs>
<clipPath id="clip0_1_24">
<rect x="130" y="67" width="37" height="39" rx="18.5" fill="white"/>
</clipPath>
</defs>
</svg>
