<svg width="136" height="85" viewBox="0 0 136 85" fill="none" xmlns="http://www.w3.org/2000/svg">
<path d="M6.9 63.55C6.76667 63.5833 6.61667 63.6 6.45 63.6C6.28333 63.6 6.11667 63.6 5.95 63.6C4.81667 63.6 3.73333 63.4 2.7 63C1.66667 62.6 0.983333 61.8333 0.65 60.7C0.55 60.4 0.5 60.0667 0.5 59.7C0.5 58.8 0.783333 57.9833 1.35 57.25C1.48333 57.1167 1.61667 57.0333 1.75 57C1.85 56.9333 1.9 57 1.9 57.2C2 58.8333 2.56667 60 3.6 60.7C4.66667 61.4333 5.91667 61.8 7.35 61.8C8.71667 61.8 10.1167 61.5167 11.55 60.95C13.0167 60.3833 14.3167 59.6167 15.45 58.65C16.9167 57.35 18.2667 55.85 19.5 54.15C20.7667 52.45 21.9667 50.7333 23.1 49C23.5 48.3333 23.9167 47.6667 24.35 47C24.7833 46.3333 25.2167 45.6833 25.65 45.05H13.2C13.1333 45.05 13.1 45.0167 13.1 44.95C13.1 44.7833 13.2167 44.5833 13.45 44.35C13.7167 44.0833 13.9333 43.95 14.1 43.95H26.35C27.8167 41.7833 29.3333 39.6667 30.9 37.6C32.4667 35.5 34.05 33.5833 35.65 31.85C37.6167 29.7833 39.6667 28.1333 41.8 26.9C43.9667 25.6333 45.9167 24.95 47.65 24.85C48.5833 24.7833 49.4167 24.8333 50.15 25C50.9167 25.1333 51.5333 25.4 52 25.8C52.4333 26.1333 52.75 26.55 52.95 27.05C53.15 27.55 53.25 28.0667 53.25 28.6C53.25 28.7333 53.2333 28.8667 53.2 29C53.2 29.1333 53.1833 29.2833 53.15 29.45C53.05 29.9833 52.85 30.4167 52.55 30.75C52.4167 30.8833 52.2833 30.95 52.15 30.95C51.9167 30.95 51.9 30.8 52.1 30.5C52.4 30.1 52.55 29.6167 52.55 29.05C52.55 28.75 52.5 28.4833 52.4 28.25C52.1667 27.6167 51.7167 27.15 51.05 26.85C50.4167 26.5167 49.6667 26.35 48.8 26.35C46.9333 26.35 44.9667 27.0167 42.9 28.35C41.4 29.3167 39.8667 30.6167 38.3 32.25C36.7667 33.85 35.2167 35.65 33.65 37.65C32.1167 39.65 30.5833 41.75 29.05 43.95H36.4C36.7 43.35 37 42.75 37.3 42.15C37.6333 41.55 37.9667 40.95 38.3 40.35C39.5333 38.1167 40.8 35.9833 42.1 33.95C43.4333 31.8833 44.6167 30.0167 45.65 28.35C45.75 28.1833 45.85 28.1 45.95 28.1C46.0833 28.1 46.1667 28.1667 46.2 28.3C46.2333 28.4333 46.2 28.55 46.1 28.65C44.5667 30.9833 43.2167 33.45 42.05 36.05C40.9167 38.65 39.8833 41.2833 38.95 43.95H41.4C41.4667 43.95 41.5 43.9833 41.5 44.05C41.5 44.1833 41.3667 44.3833 41.1 44.65C40.8667 44.9167 40.65 45.05 40.45 45.05H38.55C38.25 45.9167 37.8833 47.0833 37.45 48.55C37.05 49.9833 36.6833 51.4833 36.35 53.05C36.05 54.6167 35.9 56.05 35.9 57.35C35.9 58.55 36.0833 59.4833 36.45 60.15C36.85 60.8167 37.4667 61.15 38.3 61.15C38.4 61.15 38.5 61.15 38.6 61.15C38.7 61.15 38.8 61.1333 38.9 61.1C39.4667 61 40.0333 60.6833 40.6 60.15C41.2 59.6167 41.7833 58.9833 42.35 58.25C43.15 57.2167 43.8833 56.1167 44.55 54.95C45.2167 53.7833 45.7167 52.8833 46.05 52.25C46.2167 51.9833 46.35 51.85 46.45 51.85C46.5833 51.85 46.65 51.9667 46.65 52.2C46.65 52.3333 46.6 52.5 46.5 52.7C46.0333 53.5333 45.4333 54.5833 44.7 55.85C44 57.0833 43.2167 58.2333 42.35 59.3C41.7167 60.0333 41.05 60.6667 40.35 61.2C39.65 61.7333 38.9167 62.0667 38.15 62.2C37.95 62.2333 37.75 62.25 37.55 62.25C37.3833 62.2833 37.2 62.3 37 62.3C36.0333 62.3 35.1833 62.0167 34.45 61.45C33.7167 60.9167 33.2167 60 32.95 58.7C32.8833 58.3333 32.8333 57.95 32.8 57.55C32.7667 57.15 32.75 56.7667 32.75 56.4C32.75 54.4667 33.0833 52.5167 33.75 50.55C34.45 48.5833 35.1667 46.75 35.9 45.05H28.2C27.6667 45.7833 27.15 46.55 26.65 47.35C26.15 48.1167 25.6333 48.8833 25.1 49.65C24.1333 51.05 22.9667 52.5333 21.6 54.1C20.2667 55.6333 18.8 57.1 17.2 58.5C15.6 59.8667 13.9167 61.0167 12.15 61.95C10.4167 62.8833 8.66667 63.4167 6.9 63.55ZM47.832 60.35C47.0987 60.35 46.4154 60.1167 45.782 59.65C45.1487 59.15 44.832 58.35 44.832 57.25C44.832 56.0833 45.1154 54.8 45.682 53.4C46.2487 52 46.782 50.75 47.282 49.65C47.5487 49.1167 47.8987 48.4 48.332 47.5C48.7987 46.5667 49.2987 45.65 49.832 44.75H47.482C47.382 44.75 47.332 44.6667 47.332 44.5C47.332 44.3667 47.382 44.2333 47.482 44.1C47.582 43.9333 47.6987 43.85 47.832 43.85C48.7654 43.85 49.4654 43.7667 49.932 43.6C50.3987 43.4333 50.7987 43.2 51.132 42.9C51.6654 42.4333 52.182 41.8333 52.682 41.1C53.2154 40.3667 53.732 39.7333 54.232 39.2C54.5987 38.7333 55.0487 38.3833 55.582 38.15C56.1487 37.9167 56.5154 37.8333 56.682 37.9C56.5154 38.1333 56.2487 38.5333 55.882 39.1C55.5154 39.6667 55.132 40.2833 54.732 40.95C54.332 41.6167 53.9654 42.2333 53.632 42.8C53.2987 43.3667 53.082 43.75 52.982 43.95H59.182C60.0487 42.05 61.032 40.05 62.132 37.95C63.2654 35.85 64.5154 33.85 65.882 31.95C67.2487 30.0167 68.732 28.3333 70.332 26.9C71.932 25.4667 73.632 24.4667 75.432 23.9C75.632 23.8667 75.832 23.8333 76.032 23.8C76.232 23.7667 76.432 23.75 76.632 23.75C77.132 23.75 77.5654 23.8667 77.932 24.1C78.3987 24.4 78.632 24.9333 78.632 25.7C78.632 26.2333 78.482 26.8833 78.182 27.65C77.6487 28.9833 76.7654 30.4167 75.532 31.95C74.332 33.4833 72.9154 35.05 71.282 36.65C69.2487 38.6167 67.2987 40.35 65.432 41.85C63.5654 43.35 62.0654 44.5333 60.932 45.4C60.2654 46.8333 59.7154 48.0833 59.282 49.15C58.8487 50.1833 58.5654 50.9333 58.432 51.4C58.9654 50.6 59.5654 49.7333 60.232 48.8C60.932 47.8333 61.5487 47.0833 62.082 46.55C62.8487 45.7833 63.6154 45.1333 64.382 44.6C65.1487 44.0667 65.8987 43.7667 66.632 43.7C67.7654 43.6 68.582 43.75 69.082 44.15C69.582 44.5167 69.832 45.0667 69.832 45.8C69.832 46.5333 69.632 47.35 69.232 48.25C68.7987 49.2833 68.282 50.3167 67.682 51.35C67.082 52.3833 66.532 53.3833 66.032 54.35C65.8987 54.6167 65.6487 55.1333 65.282 55.9C64.9487 56.6333 64.732 57.3333 64.632 58C64.632 58.0333 64.6154 58.0833 64.582 58.15C64.582 58.2167 64.582 58.2833 64.582 58.35C64.582 58.7167 64.682 59 64.882 59.2C65.082 59.3667 65.3154 59.45 65.582 59.45C66.1487 59.45 66.682 59.2667 67.182 58.9C67.682 58.5333 68.1154 58.1333 68.482 57.7C69.2487 56.8667 69.9487 55.95 70.582 54.95C71.2154 53.95 71.8487 52.8833 72.482 51.75C72.582 51.6167 72.682 51.55 72.782 51.55C72.9154 51.55 72.982 51.65 72.982 51.85C72.982 52.0167 72.9487 52.15 72.882 52.25C72.282 53.35 71.632 54.45 70.932 55.55C70.2654 56.65 69.4487 57.6833 68.482 58.65C68.0487 59.0833 67.5487 59.4833 66.982 59.85C66.4154 60.1833 65.782 60.35 65.082 60.35C63.9487 60.35 63.1487 60.0333 62.682 59.4C62.2487 58.7333 62.032 58 62.032 57.2C62.032 56.5667 62.1487 55.9333 62.382 55.3C62.9487 53.8333 63.732 52.4333 64.732 51.1C65.732 49.7667 66.5654 48.3833 67.232 46.95C67.4654 46.5167 67.582 46.1167 67.582 45.75C67.582 45.35 67.4654 45.05 67.232 44.85C66.9987 44.65 66.7487 44.55 66.482 44.55C65.8487 44.55 65.1487 44.8333 64.382 45.4C63.6487 45.9333 62.932 46.6167 62.232 47.45C61.5987 48.1833 60.9487 49.0333 60.282 50C59.6154 50.9333 58.982 51.9333 58.382 53C57.8154 53.9667 57.232 54.9833 56.632 56.05C56.032 57.0833 55.5487 57.9667 55.182 58.7C54.9154 59.2667 54.632 59.6333 54.332 59.8C54.032 59.9667 53.7487 60.05 53.482 60.05C53.3487 60.05 53.2154 60.0333 53.082 60C52.9487 60 52.832 60 52.732 60C53.032 58.8667 53.582 57.3167 54.382 55.35C55.2154 53.35 56.1987 50.9833 57.332 48.25C57.5654 47.7167 57.7987 47.1667 58.032 46.6C58.2654 46 58.532 45.3833 58.832 44.75H52.532C51.932 45.7833 51.2154 47.1333 50.382 48.8C49.582 50.4333 48.8654 52.0167 48.232 53.55C48.1654 53.75 48.032 54.1167 47.832 54.65C47.632 55.15 47.4487 55.7167 47.282 56.35C47.1487 56.95 47.082 57.5167 47.082 58.05C47.082 58.4833 47.1654 58.85 47.332 59.15C47.4987 59.45 47.7987 59.6 48.232 59.6C48.732 59.6 49.232 59.4333 49.732 59.1C50.232 58.7333 50.6154 58.3333 50.882 57.9C50.982 57.7667 51.0487 57.7 51.082 57.7C51.182 57.7 51.232 57.8 51.232 58C51.232 58.3 51.1154 58.5667 50.882 58.8C50.5154 59.2 50.0654 59.5667 49.532 59.9C49.032 60.2 48.4654 60.35 47.832 60.35ZM61.382 44.4C63.382 42.9333 65.182 41.45 66.782 39.95C68.382 38.45 69.9987 36.8333 71.632 35.1C72.0987 34.6 72.6987 33.9333 73.432 33.1C74.1987 32.2667 74.9487 31.3667 75.682 30.4C76.4154 29.4333 76.9654 28.5 77.332 27.6C77.6654 26.8333 77.832 26.1833 77.832 25.65C77.832 24.75 77.4154 24.3 76.582 24.3C76.1487 24.3 75.6654 24.4333 75.132 24.7C74.5987 24.9667 74.0987 25.3333 73.632 25.8C72.032 27.3 70.4654 29.1333 68.932 31.3C67.432 33.4333 66.032 35.65 64.732 37.95C63.4654 40.25 62.3487 42.4 61.382 44.4ZM77.0039 60.4C75.0706 60.4 73.7039 59.9 72.9039 58.9C72.5039 58.4667 72.2206 57.95 72.0539 57.35C71.8872 56.75 71.8039 56.1333 71.8039 55.5C71.8039 54.7 71.9039 53.9 72.1039 53.1C72.3039 52.2667 72.5539 51.5 72.8539 50.8C73.3206 49.7 73.9372 48.6 74.7039 47.5C75.4706 46.3667 76.3872 45.4167 77.4539 44.65C78.5539 43.8833 79.7539 43.5 81.0539 43.5C81.9206 43.5 82.6039 43.7167 83.1039 44.15C83.6039 44.5833 83.8539 45.25 83.8539 46.15C83.8539 47.1833 83.5372 48.2333 82.9039 49.3C82.2706 50.3333 81.4706 51.2 80.5039 51.9C79.5372 52.6 78.5372 52.95 77.5039 52.95C76.5706 52.95 75.7539 52.6167 75.0539 51.95C74.8539 52.4833 74.6872 53.0833 74.5539 53.75C74.4206 54.3833 74.3539 55.0333 74.3539 55.7C74.3539 56.7333 74.5539 57.6333 74.9539 58.4C75.3872 59.1667 76.1539 59.55 77.2539 59.55C78.0539 59.55 78.8206 59.35 79.5539 58.95C80.3206 58.5167 81.0039 58 81.6039 57.4C82.2706 56.7 82.9039 55.95 83.5039 55.15C84.1039 54.35 84.6872 53.4167 85.2539 52.35C85.3206 52.25 85.3706 52.2 85.4039 52.2C85.5372 52.2 85.6039 52.35 85.6039 52.65C85.6039 52.85 85.5372 53.0667 85.4039 53.3C84.9039 54.2 84.3206 55.1167 83.6539 56.05C82.9872 56.95 82.3039 57.7333 81.6039 58.4C80.9706 59 80.2872 59.4833 79.5539 59.85C78.8206 60.2167 77.9706 60.4 77.0039 60.4ZM75.3039 51.2C75.5372 51.5333 75.8039 51.7833 76.1039 51.95C76.4372 52.0833 76.7706 52.15 77.1039 52.15C77.9039 52.15 78.7372 51.85 79.6039 51.25C80.4706 50.6167 81.1706 49.8833 81.7039 49.05C81.9372 48.6833 82.1372 48.2 82.3039 47.6C82.5039 47 82.6039 46.4333 82.6039 45.9C82.6039 45.4333 82.5039 45.0333 82.3039 44.7C82.1372 44.3333 81.7872 44.15 81.2539 44.15C80.6539 44.15 79.9372 44.5167 79.1039 45.25C78.3039 45.9833 77.5372 46.9333 76.8039 48.1C76.5706 48.5 76.3039 48.9667 76.0039 49.5C75.7372 50.0333 75.5039 50.6 75.3039 51.2ZM94.4898 60.3C93.5232 60.3 92.7565 60 92.1898 59.4C91.6565 58.8 91.3898 58.05 91.3898 57.15C91.3898 56.7167 91.4732 56.2167 91.6398 55.65C92.1065 54.1833 92.8398 52.7333 93.8398 51.3C94.8732 49.8333 95.7232 48.3833 96.3898 46.95C96.6232 46.4833 96.7398 46.0667 96.7398 45.7C96.7398 45.3333 96.6232 45.0667 96.3898 44.9C96.1898 44.7 95.9398 44.6 95.6398 44.6C95.2065 44.6 94.6565 44.7833 93.9898 45.15C93.3565 45.4833 92.6232 46.1333 91.7898 47.1C91.2898 47.7 90.7232 48.4333 90.0898 49.3C89.4565 50.1667 88.9398 50.95 88.5398 51.65C87.8732 52.7833 87.2732 53.9333 86.7398 55.1C86.2065 56.2333 85.7398 57.2833 85.3398 58.25C85.0065 59.0167 84.6065 59.5167 84.1398 59.75C83.6732 59.95 83.2232 60.0333 82.7898 60C82.3565 59.9667 82.0232 59.9667 81.7898 60C82.7232 58.1667 83.6398 56.2333 84.5398 54.2C85.4398 52.1667 86.2065 50.1333 86.8398 48.1C87.1398 47.1667 87.3898 46.2667 87.5898 45.4C87.7898 44.5 87.8732 43.9167 87.8398 43.65V43.55C87.8398 43.2833 87.9732 43.2167 88.2398 43.35C88.6732 43.5833 88.9732 43.9333 89.1398 44.4C89.3065 44.8333 89.3898 45.3333 89.3898 45.9C89.3898 46.5333 89.3065 47.2167 89.1398 47.95C88.9732 48.65 88.7732 49.2833 88.5398 49.85C88.9732 49.25 89.4398 48.65 89.9398 48.05C90.4398 47.4167 90.9898 46.8167 91.5898 46.25C92.2898 45.55 93.0398 44.95 93.8398 44.45C94.6398 43.9167 95.5065 43.65 96.4398 43.65C97.3398 43.65 97.9898 43.85 98.3898 44.25C98.8232 44.65 99.0398 45.1833 99.0398 45.85C99.0398 46.55 98.8398 47.35 98.4398 48.25C98.0065 49.2833 97.4732 50.3167 96.8398 51.35C96.2398 52.3833 95.6898 53.3833 95.1898 54.35C95.0898 54.55 94.9232 54.8667 94.6898 55.3C94.4898 55.7 94.3065 56.15 94.1398 56.65C94.0732 56.8833 94.0065 57.1333 93.9398 57.4C93.8732 57.6333 93.8398 57.8833 93.8398 58.15C93.8398 58.4833 93.9065 58.8 94.0398 59.1C94.2065 59.3667 94.5065 59.5 94.9398 59.5C95.5065 59.5 96.0398 59.3167 96.5398 58.95C97.0732 58.55 97.5232 58.1333 97.8898 57.7C98.6565 56.8667 99.3565 55.95 99.9898 54.95C100.657 53.9167 101.307 52.8333 101.94 51.7C102.04 51.5667 102.107 51.5 102.14 51.5C102.273 51.5 102.34 51.65 102.34 51.95C102.34 52.15 102.307 52.3 102.24 52.4C101.64 53.5 101.007 54.5833 100.34 55.65C99.6732 56.6833 98.8565 57.6833 97.8898 58.65C97.4565 59.0833 96.9565 59.4667 96.3898 59.8C95.8232 60.1333 95.1898 60.3 94.4898 60.3ZM112.248 60.35C111.182 60.35 110.448 60.0167 110.048 59.35C109.648 58.65 109.448 57.8833 109.448 57.05C109.448 56.8833 109.465 56.6 109.498 56.2C109.565 55.7667 109.632 55.3667 109.698 55C109.232 55.6333 108.665 56.3333 107.998 57.1C107.365 57.8667 106.715 58.5167 106.048 59.05C104.982 59.9167 104.015 60.35 103.148 60.35C102.315 60.35 101.665 60 101.198 59.3C100.765 58.6 100.548 57.7167 100.548 56.65C100.548 55.2833 100.848 53.9 101.448 52.5C102.048 51.1 102.832 49.7833 103.798 48.55C104.798 47.2833 105.898 46.2 107.098 45.3C107.798 44.8 108.648 44.4 109.648 44.1C110.682 43.7667 111.715 43.6 112.748 43.6C113.915 43.6 114.932 43.7833 115.798 44.15C116.698 44.4833 117.315 44.9667 117.648 45.6C116.948 46.5 116.232 47.6167 115.498 48.95C114.765 50.25 114.132 51.4333 113.598 52.5C113.232 53.2333 112.832 54.15 112.398 55.25C111.965 56.3167 111.748 57.2333 111.748 58C111.748 58.3333 111.832 58.6667 111.998 59C112.165 59.3333 112.482 59.5 112.948 59.5C113.482 59.5 113.998 59.3 114.498 58.9C114.998 58.5 115.415 58.1 115.748 57.7C116.515 56.8667 117.215 55.95 117.848 54.95C118.482 53.95 119.115 52.8833 119.748 51.75C119.848 51.6167 119.948 51.55 120.048 51.55C120.182 51.55 120.248 51.65 120.248 51.85C120.248 52.0167 120.215 52.15 120.148 52.25C119.582 53.35 118.948 54.45 118.248 55.55C117.548 56.65 116.715 57.6833 115.748 58.65C115.282 59.1167 114.732 59.5167 114.098 59.85C113.465 60.1833 112.848 60.35 112.248 60.35ZM104.248 58.8C104.882 58.8 105.565 58.4667 106.298 57.8C107.065 57.1 107.798 56.2667 108.498 55.3C109.232 54.3 109.882 53.35 110.448 52.45C111.048 51.5167 111.515 50.8 111.848 50.3C112.548 49.2 113.198 48.2833 113.798 47.55C114.398 46.8167 115.332 46.25 116.598 45.85C116.665 45.85 116.715 45.85 116.748 45.85C116.815 45.8167 116.882 45.8 116.948 45.8C116.648 45.3333 116.148 44.9833 115.448 44.75C114.748 44.5167 114.065 44.4 113.398 44.4C112.365 44.4 111.365 44.6833 110.398 45.25C109.432 45.8167 108.548 46.5333 107.748 47.4C106.982 48.3 106.232 49.2833 105.498 50.35C104.765 51.4167 104.165 52.5 103.698 53.6C103.265 54.7 103.048 55.75 103.048 56.75C103.048 57.2833 103.132 57.7667 103.298 58.2C103.498 58.6 103.815 58.8 104.248 58.8Z" fill="#F7DCDC"/>
<path d="M124.064 57V52.1H124.491L126.731 55.922H126.507L128.726 52.1H129.153V57H128.656V52.877H128.775L126.731 56.377H126.486L124.428 52.877H124.561V57H124.064ZM130.749 57V52.1H132.744C133.267 52.1 133.724 52.205 134.116 52.415C134.513 52.6203 134.821 52.9073 135.04 53.276C135.26 53.6447 135.369 54.0693 135.369 54.55C135.369 55.0307 135.26 55.4553 135.04 55.824C134.821 56.1927 134.513 56.482 134.116 56.692C133.724 56.8973 133.267 57 132.744 57H130.749ZM131.267 56.552H132.716C133.15 56.552 133.526 56.468 133.843 56.3C134.165 56.1273 134.415 55.8917 134.592 55.593C134.77 55.2897 134.858 54.942 134.858 54.55C134.858 54.1533 134.77 53.8057 134.592 53.507C134.415 53.2083 134.165 52.975 133.843 52.807C133.526 52.6343 133.15 52.548 132.716 52.548H131.267V56.552Z" fill="#FFFBFB"/>
<path d="M31.8877 74L30.1057 69.275H30.7177L32.3377 73.658H32.0587L33.7237 69.275H34.2727L35.9197 73.658H35.6407L37.2877 69.275H37.8727L36.0817 74H35.4787L33.8947 69.878H34.0837L32.4907 74H31.8877ZM38.8348 74V69.275H39.4738V74H38.8348ZM39.1588 68.231C39.0268 68.231 38.9158 68.186 38.8258 68.096C38.7358 68.006 38.6908 67.898 38.6908 67.772C38.6908 67.646 38.7358 67.541 38.8258 67.457C38.9158 67.367 39.0268 67.322 39.1588 67.322C39.2908 67.322 39.4018 67.364 39.4918 67.448C39.5818 67.532 39.6268 67.637 39.6268 67.763C39.6268 67.895 39.5818 68.006 39.4918 68.096C39.4078 68.186 39.2968 68.231 39.1588 68.231ZM42.5208 74.045C42.1308 74.045 41.7618 73.991 41.4138 73.883C41.0658 73.769 40.7928 73.628 40.5948 73.46L40.8828 72.956C41.0748 73.1 41.3208 73.226 41.6208 73.334C41.9208 73.436 42.2358 73.487 42.5658 73.487C43.0158 73.487 43.3398 73.418 43.5378 73.28C43.7358 73.136 43.8348 72.947 43.8348 72.713C43.8348 72.539 43.7778 72.404 43.6638 72.308C43.5558 72.206 43.4118 72.131 43.2318 72.083C43.0518 72.029 42.8508 71.984 42.6288 71.948C42.4068 71.912 42.1848 71.87 41.9628 71.822C41.7468 71.774 41.5488 71.705 41.3688 71.615C41.1888 71.519 41.0418 71.39 40.9278 71.228C40.8198 71.066 40.7658 70.85 40.7658 70.58C40.7658 70.322 40.8378 70.091 40.9818 69.887C41.1258 69.683 41.3358 69.524 41.6118 69.41C41.8938 69.29 42.2358 69.23 42.6378 69.23C42.9438 69.23 43.2498 69.272 43.5558 69.356C43.8618 69.434 44.1138 69.539 44.3118 69.671L44.0328 70.184C43.8228 70.04 43.5978 69.938 43.3578 69.878C43.1178 69.812 42.8778 69.779 42.6378 69.779C42.2118 69.779 41.8968 69.854 41.6928 70.004C41.4948 70.148 41.3958 70.334 41.3958 70.562C41.3958 70.742 41.4498 70.883 41.5578 70.985C41.6718 71.087 41.8188 71.168 41.9988 71.228C42.1848 71.282 42.3858 71.327 42.6018 71.363C42.8238 71.399 43.0428 71.444 43.2588 71.498C43.4808 71.546 43.6818 71.615 43.8618 71.705C44.0478 71.789 44.1948 71.912 44.3028 72.074C44.4168 72.23 44.4738 72.437 44.4738 72.695C44.4738 72.971 44.3958 73.211 44.2398 73.415C44.0898 73.613 43.8678 73.769 43.5738 73.883C43.2858 73.991 42.9348 74.045 42.5208 74.045ZM47.5274 74.045C47.0774 74.045 46.6724 73.943 46.3124 73.739C45.9584 73.535 45.6794 73.253 45.4754 72.893C45.2714 72.527 45.1694 72.107 45.1694 71.633C45.1694 71.153 45.2714 70.733 45.4754 70.373C45.6794 70.013 45.9584 69.734 46.3124 69.536C46.6724 69.332 47.0774 69.23 47.5274 69.23C47.9414 69.23 48.3104 69.323 48.6344 69.509C48.9644 69.695 49.2254 69.968 49.4174 70.328C49.6154 70.682 49.7144 71.117 49.7144 71.633C49.7144 72.143 49.6184 72.578 49.4264 72.938C49.2344 73.298 48.9734 73.574 48.6434 73.766C48.3194 73.952 47.9474 74.045 47.5274 74.045ZM47.5724 73.478C47.9084 73.478 48.2084 73.403 48.4724 73.253C48.7424 73.097 48.9524 72.881 49.1024 72.605C49.2584 72.323 49.3364 71.999 49.3364 71.633C49.3364 71.261 49.2584 70.937 49.1024 70.661C48.9524 70.385 48.7424 70.172 48.4724 70.022C48.2084 69.866 47.9084 69.788 47.5724 69.788C47.2424 69.788 46.9454 69.866 46.6814 70.022C46.4174 70.172 46.2074 70.385 46.0514 70.661C45.8954 70.937 45.8174 71.261 45.8174 71.633C45.8174 71.999 45.8954 72.323 46.0514 72.605C46.2074 72.881 46.4174 73.097 46.6814 73.253C46.9454 73.403 47.2424 73.478 47.5724 73.478ZM49.3544 74V72.578L49.4174 71.624L49.3274 70.67V67.322H49.9664V74H49.3544ZM53.672 74.045C53.216 74.045 52.805 73.943 52.439 73.739C52.079 73.529 51.794 73.244 51.584 72.884C51.374 72.518 51.269 72.101 51.269 71.633C51.269 71.159 51.374 70.742 51.584 70.382C51.794 70.022 52.079 69.74 52.439 69.536C52.799 69.332 53.21 69.23 53.672 69.23C54.14 69.23 54.554 69.332 54.914 69.536C55.28 69.74 55.565 70.022 55.769 70.382C55.979 70.742 56.084 71.159 56.084 71.633C56.084 72.101 55.979 72.518 55.769 72.884C55.565 73.244 55.28 73.529 54.914 73.739C54.548 73.943 54.134 74.045 53.672 74.045ZM53.672 73.478C54.014 73.478 54.317 73.403 54.581 73.253C54.845 73.097 55.052 72.881 55.202 72.605C55.358 72.323 55.436 71.999 55.436 71.633C55.436 71.261 55.358 70.937 55.202 70.661C55.052 70.385 54.845 70.172 54.581 70.022C54.317 69.866 54.017 69.788 53.681 69.788C53.345 69.788 53.045 69.866 52.781 70.022C52.517 70.172 52.307 70.385 52.151 70.661C51.995 70.937 51.917 71.261 51.917 71.633C51.917 71.999 51.995 72.323 52.151 72.605C52.307 72.881 52.517 73.097 52.781 73.253C53.045 73.403 53.342 73.478 53.672 73.478ZM63.2926 69.23C63.6766 69.23 64.0096 69.305 64.2916 69.455C64.5796 69.599 64.8016 69.821 64.9576 70.121C65.1196 70.421 65.2006 70.799 65.2006 71.255V74H64.5616V71.318C64.5616 70.82 64.4416 70.445 64.2016 70.193C63.9676 69.935 63.6346 69.806 63.2026 69.806C62.8786 69.806 62.5966 69.875 62.3566 70.013C62.1226 70.145 61.9396 70.34 61.8076 70.598C61.6816 70.85 61.6186 71.156 61.6186 71.516V74H60.9796V71.318C60.9796 70.82 60.8596 70.445 60.6196 70.193C60.3796 69.935 60.0436 69.806 59.6116 69.806C59.2936 69.806 59.0146 69.875 58.7746 70.013C58.5346 70.145 58.3486 70.34 58.2166 70.598C58.0906 70.85 58.0276 71.156 58.0276 71.516V74H57.3886V69.275H58.0006V70.553L57.9016 70.328C58.0456 69.986 58.2766 69.719 58.5946 69.527C58.9186 69.329 59.2996 69.23 59.7376 69.23C60.1996 69.23 60.5926 69.347 60.9166 69.581C61.2406 69.809 61.4506 70.154 61.5466 70.616L61.2946 70.517C61.4326 70.133 61.6756 69.824 62.0236 69.59C62.3776 69.35 62.8006 69.23 63.2926 69.23ZM69.3969 74V68.681C69.3969 68.261 69.5199 67.922 69.7659 67.664C70.0119 67.406 70.3659 67.277 70.8279 67.277C71.0079 67.277 71.1819 67.301 71.3499 67.349C71.5179 67.397 71.6589 67.472 71.7729 67.574L71.5569 68.051C71.4669 67.973 71.3619 67.916 71.2419 67.88C71.1219 67.838 70.9929 67.817 70.8549 67.817C70.5849 67.817 70.3779 67.892 70.2339 68.042C70.0899 68.192 70.0179 68.414 70.0179 68.708V69.428L70.0359 69.725V74H69.3969ZM68.5509 69.806V69.275H71.4759V69.806H68.5509ZM74.1857 74.045C73.7297 74.045 73.3187 73.943 72.9527 73.739C72.5927 73.529 72.3077 73.244 72.0977 72.884C71.8877 72.518 71.7827 72.101 71.7827 71.633C71.7827 71.159 71.8877 70.742 72.0977 70.382C72.3077 70.022 72.5927 69.74 72.9527 69.536C73.3127 69.332 73.7237 69.23 74.1857 69.23C74.6537 69.23 75.0677 69.332 75.4277 69.536C75.7937 69.74 76.0787 70.022 76.2827 70.382C76.4927 70.742 76.5977 71.159 76.5977 71.633C76.5977 72.101 76.4927 72.518 76.2827 72.884C76.0787 73.244 75.7937 73.529 75.4277 73.739C75.0617 73.943 74.6477 74.045 74.1857 74.045ZM74.1857 73.478C74.5277 73.478 74.8307 73.403 75.0947 73.253C75.3587 73.097 75.5657 72.881 75.7157 72.605C75.8717 72.323 75.9497 71.999 75.9497 71.633C75.9497 71.261 75.8717 70.937 75.7157 70.661C75.5657 70.385 75.3587 70.172 75.0947 70.022C74.8307 69.866 74.5307 69.788 74.1947 69.788C73.8587 69.788 73.5587 69.866 73.2947 70.022C73.0307 70.172 72.8207 70.385 72.6647 70.661C72.5087 70.937 72.4307 71.261 72.4307 71.633C72.4307 71.999 72.5087 72.323 72.6647 72.605C72.8207 72.881 73.0307 73.097 73.2947 73.253C73.5587 73.403 73.8557 73.478 74.1857 73.478ZM77.9022 74V69.275H78.5142V70.562L78.4512 70.337C78.5832 69.977 78.8052 69.704 79.1172 69.518C79.4292 69.326 79.8162 69.23 80.2782 69.23V69.851C80.2542 69.851 80.2302 69.851 80.2062 69.851C80.1822 69.845 80.1582 69.842 80.1342 69.842C79.6362 69.842 79.2462 69.995 78.9642 70.301C78.6822 70.601 78.5412 71.03 78.5412 71.588V74H77.9022ZM85.751 74.045C85.301 74.045 84.896 73.943 84.536 73.739C84.182 73.535 83.903 73.253 83.699 72.893C83.495 72.527 83.393 72.107 83.393 71.633C83.393 71.153 83.495 70.733 83.699 70.373C83.903 70.013 84.182 69.734 84.536 69.536C84.896 69.332 85.301 69.23 85.751 69.23C86.165 69.23 86.534 69.323 86.858 69.509C87.188 69.695 87.449 69.968 87.641 70.328C87.839 70.682 87.938 71.117 87.938 71.633C87.938 72.143 87.842 72.578 87.65 72.938C87.458 73.298 87.197 73.574 86.867 73.766C86.543 73.952 86.171 74.045 85.751 74.045ZM85.796 73.478C86.132 73.478 86.432 73.403 86.696 73.253C86.966 73.097 87.176 72.881 87.326 72.605C87.482 72.323 87.56 71.999 87.56 71.633C87.56 71.261 87.482 70.937 87.326 70.661C87.176 70.385 86.966 70.172 86.696 70.022C86.432 69.866 86.132 69.788 85.796 69.788C85.466 69.788 85.169 69.866 84.905 70.022C84.641 70.172 84.431 70.385 84.275 70.661C84.119 70.937 84.041 71.261 84.041 71.633C84.041 71.999 84.119 72.323 84.275 72.605C84.431 72.881 84.641 73.097 84.905 73.253C85.169 73.403 85.466 73.478 85.796 73.478ZM87.578 74V72.578L87.641 71.624L87.551 70.67V67.322H88.19V74H87.578ZM91.8956 74.045C91.4396 74.045 91.0286 73.943 90.6626 73.739C90.3026 73.529 90.0176 73.244 89.8076 72.884C89.5976 72.518 89.4926 72.101 89.4926 71.633C89.4926 71.159 89.5976 70.742 89.8076 70.382C90.0176 70.022 90.3026 69.74 90.6626 69.536C91.0226 69.332 91.4336 69.23 91.8956 69.23C92.3636 69.23 92.7776 69.332 93.1376 69.536C93.5036 69.74 93.7886 70.022 93.9926 70.382C94.2026 70.742 94.3076 71.159 94.3076 71.633C94.3076 72.101 94.2026 72.518 93.9926 72.884C93.7886 73.244 93.5036 73.529 93.1376 73.739C92.7716 73.943 92.3576 74.045 91.8956 74.045ZM91.8956 73.478C92.2376 73.478 92.5406 73.403 92.8046 73.253C93.0686 73.097 93.2756 72.881 93.4256 72.605C93.5816 72.323 93.6596 71.999 93.6596 71.633C93.6596 71.261 93.5816 70.937 93.4256 70.661C93.2756 70.385 93.0686 70.172 92.8046 70.022C92.5406 69.866 92.2406 69.788 91.9046 69.788C91.5686 69.788 91.2686 69.866 91.0046 70.022C90.7406 70.172 90.5306 70.385 90.3746 70.661C90.2186 70.937 90.1406 71.261 90.1406 71.633C90.1406 71.999 90.2186 72.323 90.3746 72.605C90.5306 72.881 90.7406 73.097 91.0046 73.253C91.2686 73.403 91.5656 73.478 91.8956 73.478ZM97.5742 74.045C97.1062 74.045 96.6862 73.943 96.3142 73.739C95.9482 73.529 95.6602 73.244 95.4502 72.884C95.2402 72.518 95.1352 72.101 95.1352 71.633C95.1352 71.159 95.2402 70.742 95.4502 70.382C95.6602 70.022 95.9482 69.74 96.3142 69.536C96.6862 69.332 97.1062 69.23 97.5742 69.23C97.9762 69.23 98.3392 69.308 98.6632 69.464C98.9872 69.62 99.2422 69.854 99.4282 70.166L98.9512 70.49C98.7892 70.25 98.5882 70.073 98.3482 69.959C98.1082 69.845 97.8472 69.788 97.5652 69.788C97.2292 69.788 96.9262 69.866 96.6562 70.022C96.3862 70.172 96.1732 70.385 96.0172 70.661C95.8612 70.937 95.7832 71.261 95.7832 71.633C95.7832 72.005 95.8612 72.329 96.0172 72.605C96.1732 72.881 96.3862 73.097 96.6562 73.253C96.9262 73.403 97.2292 73.478 97.5652 73.478C97.8472 73.478 98.1082 73.421 98.3482 73.307C98.5882 73.193 98.7892 73.019 98.9512 72.785L99.4282 73.109C99.2422 73.415 98.9872 73.649 98.6632 73.811C98.3392 73.967 97.9762 74.045 97.5742 74.045ZM102.23 74.045C101.786 74.045 101.444 73.925 101.204 73.685C100.964 73.445 100.844 73.106 100.844 72.668V68.231H101.483V72.632C101.483 72.908 101.552 73.121 101.69 73.271C101.834 73.421 102.038 73.496 102.302 73.496C102.584 73.496 102.818 73.415 103.004 73.253L103.229 73.712C103.103 73.826 102.95 73.91 102.77 73.964C102.596 74.018 102.416 74.045 102.23 74.045ZM99.9982 69.806V69.275H102.923V69.806H99.9982ZM106.151 74.045C105.695 74.045 105.284 73.943 104.918 73.739C104.558 73.529 104.273 73.244 104.063 72.884C103.853 72.518 103.748 72.101 103.748 71.633C103.748 71.159 103.853 70.742 104.063 70.382C104.273 70.022 104.558 69.74 104.918 69.536C105.278 69.332 105.689 69.23 106.151 69.23C106.619 69.23 107.033 69.332 107.393 69.536C107.759 69.74 108.044 70.022 108.248 70.382C108.458 70.742 108.563 71.159 108.563 71.633C108.563 72.101 108.458 72.518 108.248 72.884C108.044 73.244 107.759 73.529 107.393 73.739C107.027 73.943 106.613 74.045 106.151 74.045ZM106.151 73.478C106.493 73.478 106.796 73.403 107.06 73.253C107.324 73.097 107.531 72.881 107.681 72.605C107.837 72.323 107.915 71.999 107.915 71.633C107.915 71.261 107.837 70.937 107.681 70.661C107.531 70.385 107.324 70.172 107.06 70.022C106.796 69.866 106.496 69.788 106.16 69.788C105.824 69.788 105.524 69.866 105.26 70.022C104.996 70.172 104.786 70.385 104.63 70.661C104.474 70.937 104.396 71.261 104.396 71.633C104.396 71.999 104.474 72.323 104.63 72.605C104.786 72.881 104.996 73.097 105.26 73.253C105.524 73.403 105.821 73.478 106.151 73.478ZM109.868 74V69.275H110.48V70.562L110.417 70.337C110.549 69.977 110.771 69.704 111.083 69.518C111.395 69.326 111.782 69.23 112.244 69.23V69.851C112.22 69.851 112.196 69.851 112.172 69.851C112.148 69.845 112.124 69.842 112.1 69.842C111.602 69.842 111.212 69.995 110.93 70.301C110.648 70.601 110.507 71.03 110.507 71.588V74H109.868ZM114.732 74.045C114.342 74.045 113.973 73.991 113.625 73.883C113.277 73.769 113.004 73.628 112.806 73.46L113.094 72.956C113.286 73.1 113.532 73.226 113.832 73.334C114.132 73.436 114.447 73.487 114.777 73.487C115.227 73.487 115.551 73.418 115.749 73.28C115.947 73.136 116.046 72.947 116.046 72.713C116.046 72.539 115.989 72.404 115.875 72.308C115.767 72.206 115.623 72.131 115.443 72.083C115.263 72.029 115.062 71.984 114.84 71.948C114.618 71.912 114.396 71.87 114.174 71.822C113.958 71.774 113.76 71.705 113.58 71.615C113.4 71.519 113.253 71.39 113.139 71.228C113.031 71.066 112.977 70.85 112.977 70.58C112.977 70.322 113.049 70.091 113.193 69.887C113.337 69.683 113.547 69.524 113.823 69.41C114.105 69.29 114.447 69.23 114.849 69.23C115.155 69.23 115.461 69.272 115.767 69.356C116.073 69.434 116.325 69.539 116.523 69.671L116.244 70.184C116.034 70.04 115.809 69.938 115.569 69.878C115.329 69.812 115.089 69.779 114.849 69.779C114.423 69.779 114.108 69.854 113.904 70.004C113.706 70.148 113.607 70.334 113.607 70.562C113.607 70.742 113.661 70.883 113.769 70.985C113.883 71.087 114.03 71.168 114.21 71.228C114.396 71.282 114.597 71.327 114.813 71.363C115.035 71.399 115.254 71.444 115.47 71.498C115.692 71.546 115.893 71.615 116.073 71.705C116.259 71.789 116.406 71.912 116.514 72.074C116.628 72.23 116.685 72.437 116.685 72.695C116.685 72.971 116.607 73.211 116.451 73.415C116.301 73.613 116.079 73.769 115.785 73.883C115.497 73.991 115.146 74.045 114.732 74.045Z" fill="#FFFBFB"/>
</svg>
